<svg version="1.0" xmlns="http://www.w3.org/2000/svg"
 width="638.000000pt" height="640.000000pt" viewBox="0 0 638.000000 640.000000"
 preserveAspectRatio="xMidYMid meet">
<metadata>
Created by potrace 1.16, written by Peter Selinger 2001-2019
</metadata>
<g transform="translate(0.000000,640.000000) scale(0.100000,-0.100000)"
fill="#000000" stroke="none">
<path d="M2915 6394 c-337 -35 -645 -109 -927 -225 -971 -400 -1677 -1232
-1912 -2257 -58 -252 -70 -372 -70 -712 0 -340 11 -457 70 -712 205 -894 775
-1652 1578 -2097 320 -177 695 -303 1081 -363 168 -26 555 -36 745 -19 1425
126 2603 1208 2853 2621 38 212 42 268 42 570 0 302 -4 357 -42 570 -58 334
-191 706 -354 993 -507 891 -1350 1466 -2366 1613 -103 15 -602 28 -698 18z
m123 -1280 c-12 -7 -33 -13 -45 -14 -12 0 -25 -4 -28 -10 -4 -6 10 -10 34 -10
23 0 41 4 41 8 0 5 14 9 30 10 30 1 31 -4 7 -35 -7 -10 -14 -10 -31 -2 -17 9
-19 9 -9 -2 9 -9 9 -16 2 -25 -8 -10 -5 -11 19 -2 40 16 64 5 58 -27 -4 -22
-2 -24 20 -19 20 5 24 2 25 -17 0 -13 3 -18 6 -11 7 19 31 14 38 -8 6 -20 25
-19 25 1 0 6 -4 7 -10 4 -5 -3 -10 1 -10 9 0 10 9 16 25 16 14 0 25 4 25 8 0
5 10 21 23 35 19 22 24 24 40 13 16 -13 16 -14 -5 -29 -20 -14 -21 -18 -8 -26
13 -9 13 -11 1 -11 -8 0 -26 -10 -40 -22 -14 -13 -20 -16 -13 -6 11 13 11 18
0 24 -7 4 -10 4 -6 -1 4 -4 -4 -16 -17 -27 -28 -22 -24 -47 3 -27 16 12 16 12
0 -5 -20 -23 -35 -14 -47 27 l-10 32 2 -30 c2 -26 -1 -30 -21 -29 -12 1 -20
-1 -17 -5 6 -6 11 -7 37 -10 6 0 9 -4 5 -7 -7 -8 17 -34 32 -34 6 0 11 7 11
15 0 14 24 32 45 34 5 1 10 11 10 23 0 15 10 24 31 32 29 10 31 12 16 26 -15
14 -14 15 11 18 15 2 27 9 27 18 0 8 7 14 16 14 8 0 12 -4 9 -10 -3 -6 5 -10
19 -10 18 0 26 6 28 22 2 12 9 23 16 24 7 1 8 0 2 -3 -18 -8 -11 -23 11 -23
18 0 19 -2 9 -15 -7 -8 -16 -12 -21 -9 -11 6 -6 -32 5 -43 4 -4 13 -1 19 8 7
9 28 19 47 22 26 5 31 4 18 -3 -9 -6 -15 -17 -12 -25 4 -8 11 -12 17 -8 6 4 8
0 4 -11 -5 -12 -3 -15 6 -11 6 4 1 -2 -13 -13 -23 -19 -46 -21 -35 -2 3 4 -2
10 -10 14 -20 7 -15 -16 8 -32 26 -20 80 4 66 29 -13 25 -12 27 16 21 20 -3
25 0 25 15 0 11 -7 20 -15 20 -8 0 -15 -6 -15 -13 0 -7 -8 -11 -17 -9 -10 2
-22 4 -28 4 -5 1 -3 5 5 10 8 6 18 7 24 4 5 -4 6 -1 1 7 -6 9 1 11 29 8 20 -2
36 0 36 4 0 4 -18 8 -41 8 -22 0 -38 4 -35 9 4 5 3 17 0 26 -6 16 -8 16 -16 1
-5 -9 -14 -13 -20 -10 -7 4 -8 2 -4 -5 5 -7 13 -9 20 -4 7 4 3 0 -7 -9 -11
-10 -24 -18 -31 -18 -6 0 -4 5 4 10 10 7 11 10 2 10 -10 0 -10 4 0 20 7 10 14
17 17 15 8 -9 30 16 25 29 -3 7 4 12 15 12 11 0 17 -5 13 -11 -12 -19 -10 -35
5 -35 13 0 13 -3 3 -15 -11 -13 -8 -15 22 -15 42 0 87 20 89 40 1 11 3 10 6
-2 2 -10 11 -18 19 -18 8 0 14 -5 14 -11 0 -5 -5 -7 -12 -3 -7 5 -8 3 -3 -6 6
-10 12 -7 26 11 10 13 21 20 25 16 4 -4 -1 -16 -11 -27 -10 -11 -15 -23 -12
-27 4 -3 2 -12 -4 -20 -6 -7 -8 -13 -3 -14 5 0 0 -4 -11 -9 -16 -7 -12 -9 17
-8 20 1 34 6 32 10 -3 4 1 8 9 8 9 0 14 -9 13 -22 -2 -30 14 -46 37 -40 15 4
17 0 12 -24 -5 -22 -4 -25 4 -14 15 22 13 50 -4 50 -9 0 -12 6 -8 18 9 24 25
32 48 26 12 -3 15 -2 9 3 -16 12 -36 53 -26 53 11 0 34 -25 28 -31 -2 -2 7
-12 21 -23 25 -18 25 -18 14 2 -14 27 -14 32 3 26 7 -3 13 -15 12 -27 -1 -16
-7 -22 -23 -21 -20 0 -20 -1 -5 -22 18 -24 62 -39 62 -21 0 6 3 8 6 4 4 -3 15
4 25 16 14 17 21 19 27 9 5 -7 15 -10 23 -7 9 3 31 -8 52 -26 29 -25 35 -35
26 -45 -8 -9 -8 -14 -1 -14 6 0 12 -6 15 -12 2 -7 3 -6 2 4 -4 27 40 28 80 1
39 -26 42 -35 20 -53 -12 -10 -16 -8 -23 11 l-9 23 -13 -24 c-13 -23 -13 -24
-21 -5 -11 28 -11 35 2 35 5 0 7 -5 3 -11 -4 -7 -1 -10 7 -7 25 8 22 36 -4 36
-13 0 -24 -6 -24 -12 0 -6 -2 -15 -3 -21 -8 -33 1 -47 24 -41 30 7 56 -2 50
-18 -6 -17 54 -38 77 -26 23 13 42 13 34 0 -4 -6 -11 -7 -17 -4 -7 4 -8 2 -4
-4 4 -6 13 -9 20 -6 10 4 14 -3 12 -25 -1 -17 1 -37 6 -44 6 -10 13 38 9 65 0
4 7 4 17 1 28 -11 62 -35 62 -45 0 -5 -4 -6 -10 -3 -5 3 -10 1 -10 -6 0 -6 8
-9 20 -6 11 3 21 1 21 -4 3 -19 5 -24 12 -36 4 -6 3 -14 -2 -17 -11 -7 -23 22
-15 37 3 7 -3 1 -15 -13 -15 -19 -17 -26 -7 -30 17 -7 12 -41 -9 -56 -11 -8
-13 -14 -5 -19 8 -5 5 -11 -7 -21 -16 -13 -16 -13 -1 -8 11 4 20 0 24 -10 8
-20 34 -21 34 -2 0 8 8 13 18 11 20 -3 18 -22 -5 -47 -15 -17 -11 -23 10 -19
5 1 6 -3 2 -9 -3 -5 0 -10 7 -11 10 0 10 -2 1 -6 -18 -7 -75 36 -69 52 10 26
-16 35 -45 14 l-28 -19 -15 22 c-9 13 -19 21 -23 18 -3 -3 -7 3 -9 13 -1 9 2
17 7 17 5 0 9 -5 9 -11 0 -21 18 2 24 31 4 21 10 29 17 24 8 -4 9 -3 5 4 -4 7
-1 12 8 12 20 0 29 17 15 26 -8 4 -9 3 -5 -4 10 -17 -3 -15 -21 3 -12 13 -13
18 -2 33 11 14 11 15 -1 5 -20 -19 -30 -16 -30 8 0 11 -4 17 -10 14 -5 -3 -10
-1 -10 6 0 10 -3 10 -12 1 -8 -8 -8 -15 2 -27 8 -9 8 -15 2 -15 -6 0 -14 5
-17 10 -3 6 -10 10 -16 10 -5 0 -9 -4 -9 -10 0 -5 7 -10 15 -10 8 0 15 -4 15
-10 0 -5 -7 -7 -15 -4 -8 3 -26 -4 -41 -15 -33 -26 -44 -26 -44 -1 0 15 7 20
29 20 26 0 29 3 33 39 3 31 1 37 -9 29 -10 -8 -13 -6 -13 5 0 10 -6 13 -20 10
-14 -4 -22 1 -28 18 -9 22 -9 22 -14 -8 -3 -24 0 -33 11 -36 11 -2 4 -10 -21
-26 -37 -22 -78 -86 -78 -120 0 -10 9 -21 20 -24 17 -4 19 -1 14 19 -5 19 -2
24 12 24 13 0 15 -3 7 -8 -8 -5 -9 -13 -3 -22 6 -9 10 -10 10 -3 0 6 9 11 20
10 11 -1 20 -5 20 -10 0 -4 4 -6 9 -3 4 3 17 -4 27 -15 17 -19 17 -20 -9 -47
-27 -26 -27 -26 -27 -4 0 23 -14 30 -25 12 -3 -5 -17 -10 -30 -10 -13 0 -27
-4 -30 -10 -3 -5 -2 -10 4 -10 6 0 8 -7 5 -15 -4 -9 0 -15 10 -15 9 0 16 5 16
10 0 6 9 10 20 10 11 0 20 -5 20 -11 0 -5 5 -7 12 -3 6 4 3 -4 -8 -18 -10 -14
-23 -24 -27 -21 -5 3 -1 11 9 17 15 12 15 13 1 19 -10 4 -16 2 -14 -5 1 -7 -2
-12 -8 -13 -5 0 -18 -5 -29 -11 -18 -11 -17 -11 2 -16 16 -4 19 -2 15 11 -4
11 1 9 18 -7 18 -17 21 -26 13 -39 -5 -9 -19 -18 -29 -19 -23 -3 -56 -43 -52
-64 3 -20 67 -33 67 -13 0 8 -5 11 -11 7 -7 -4 -10 1 -7 12 2 10 12 20 23 21
20 3 20 3 0 -6 -17 -8 -15 -10 13 -10 23 -1 31 3 26 11 -4 7 -3 8 4 4 7 -4 12
-1 12 6 0 8 3 9 8 3 11 -15 94 -12 100 4 4 11 6 11 13 0 6 -10 9 -11 9 -1 0 6
11 12 25 12 16 0 25 6 25 16 0 13 -3 14 -14 5 -11 -10 -16 -6 -25 16 -10 27
-10 27 -8 3 2 -21 -2 -25 -28 -26 -16 -1 -42 -7 -57 -13 -15 -6 -27 -7 -27 -3
4 26 -2 32 -21 22 -16 -9 -20 -8 -20 5 0 8 3 14 8 14 24 -4 42 3 42 17 0 8 -4
12 -10 9 -5 -3 -10 1 -10 11 0 13 6 15 30 11 30 -6 41 5 18 19 -7 4 -8 3 -4
-4 5 -8 1 -10 -10 -5 -24 9 2 21 42 19 35 -1 88 -48 72 -64 -6 -6 -6 -12 1
-16 6 -4 11 -1 11 6 1 7 8 1 16 -15 17 -31 11 -49 -14 -41 -14 5 -15 4 -2 -5
8 -6 11 -11 6 -11 -6 0 -1 -7 10 -15 19 -15 19 -15 -1 -9 -15 4 -13 1 5 -10
22 -14 21 -21 -3 -17 -5 1 -6 -3 -2 -9 3 -5 1 -10 -4 -10 -6 0 -11 7 -11 15 0
8 -5 15 -11 15 -6 0 -9 7 -5 15 3 8 1 15 -4 15 -5 0 -6 8 -3 18 6 15 5 15 -10
3 -9 -7 -17 -10 -17 -6 0 5 -9 0 -20 -10 -25 -23 -25 -35 0 -35 11 0 20 7 20
15 0 25 15 17 18 -10 2 -27 -16 -44 -28 -25 -5 8 -10 8 -14 2 -3 -5 1 -13 10
-16 13 -5 14 -9 4 -21 -10 -12 -9 -15 9 -15 25 0 27 -12 5 -30 -13 -11 -16
-10 -21 8 -3 12 -9 22 -13 22 -13 0 -21 -33 -10 -40 7 -4 5 -11 -6 -21 -14
-11 -18 -11 -29 4 -15 21 -31 22 -39 2 -4 -10 1 -15 15 -15 16 0 18 -3 9 -19
-5 -11 -7 -26 -4 -34 3 -8 1 -18 -5 -22 -6 -3 -11 -21 -11 -38 l0 -32 14 26
c7 14 16 37 20 52 3 15 13 27 22 27 8 0 13 -4 10 -9 -3 -5 1 -12 10 -15 24 -9
54 -7 54 4 0 6 7 10 16 10 14 0 14 -3 4 -15 -10 -13 -9 -15 9 -15 17 0 21 6
21 30 0 31 9 35 45 20 19 -8 18 -11 -4 -14 -5 0 -13 -5 -18 -10 -5 -5 -3 -6 5
-2 6 4 12 2 12 -3 0 -6 9 -11 20 -11 11 0 20 5 20 10 0 6 8 10 18 10 12 0 8
-8 -18 -30 -19 -16 -40 -30 -46 -30 -6 0 -17 -6 -23 -14 -9 -11 -7 -15 9 -19
13 -3 20 0 20 9 0 9 11 14 34 14 29 0 33 3 29 20 -4 15 0 20 16 20 11 0 21 -6
21 -12 0 -9 3 -9 8 -2 14 21 41 24 52 4 6 -11 6 -21 1 -25 -5 -3 -11 4 -13 15
-2 15 -6 17 -18 9 -11 -8 -12 -12 -2 -16 20 -8 14 -22 -8 -18 -11 2 -22 0 -25
-6 -4 -5 1 -9 10 -9 9 0 14 -4 11 -9 -4 -5 -1 -11 5 -13 5 -2 -1 -14 -15 -27
-20 -19 -26 -21 -26 -9 0 9 6 19 13 21 6 3 2 6 -9 6 -12 1 -32 -7 -45 -18
l-23 -19 32 -7 c18 -3 30 -11 26 -16 -3 -5 -13 -5 -24 1 -22 12 -50 13 -50 3
0 -5 10 -9 23 -9 12 -1 32 -5 45 -9 17 -6 22 -3 22 9 0 9 7 16 16 16 13 0 14
-3 5 -14 -9 -11 -9 -20 -2 -34 8 -15 6 -23 -8 -36 -20 -18 -41 -21 -41 -5 0 5
-4 7 -10 4 -6 -3 -10 -1 -10 4 0 6 4 11 9 11 5 0 11 7 15 15 10 26 -18 11 -38
-20 -11 -18 -21 -25 -23 -17 -3 6 -9 9 -15 6 -6 -4 -7 10 -3 40 8 49 2 56 -27
29 -17 -15 -18 -15 -18 0 0 10 5 17 10 17 6 0 10 9 10 21 0 28 -25 19 -26 -10
-2 -27 -32 -61 -49 -55 -7 3 -16 0 -20 -6 -4 -6 -1 -11 6 -9 28 3 50 -1 45 -9
-3 -5 -15 -8 -28 -6 -13 1 -27 3 -32 3 -4 1 -6 10 -3 21 3 12 1 17 -5 14 -13
-8 -6 28 9 44 17 18 25 15 14 -7 -11 -20 -5 -31 16 -31 7 0 13 7 13 16 0 14
-3 14 -16 4 -13 -12 -14 -10 -3 13 7 15 16 27 21 27 4 0 7 3 7 8 -3 18 2 24
14 14 8 -7 19 -6 37 3 20 11 21 15 8 16 -53 5 -73 2 -70 -9 3 -16 -10 -15 -28
1 -8 6 -6 1 5 -12 15 -18 16 -23 5 -21 -24 4 -40 1 -38 -7 2 -5 -1 -8 -7 -8
-5 0 -9 3 -7 8 1 4 -4 7 -12 7 -8 0 -16 6 -19 13 -2 6 -6 -1 -9 -16 -4 -21 -2
-27 8 -23 17 6 19 -10 3 -20 -6 -3 -15 -1 -19 6 -4 7 -13 9 -19 6 -6 -4 -11
-3 -11 2 0 6 7 13 16 16 14 5 14 8 0 27 -8 12 -12 28 -9 35 6 16 -22 20 -31 5
-4 -5 -17 -8 -30 -7 -17 2 -23 -2 -21 -13 4 -23 -14 -41 -33 -34 -9 3 -14 3
-11 -1 4 -4 18 -9 32 -12 28 -5 48 19 39 46 -3 12 -2 12 8 3 11 -10 16 -9 24
3 10 13 12 12 13 -7 1 -12 7 -25 13 -29 8 -5 7 -9 -4 -13 -11 -4 -16 -17 -14
-37 1 -16 5 -30 8 -30 4 0 7 -7 8 -15 1 -8 3 -22 4 -30 1 -8 8 -17 15 -19 8
-3 11 -11 8 -16 -4 -7 -14 -3 -26 11 -10 12 -19 17 -19 11 0 -7 0 -15 0 -19 0
-5 6 -8 13 -8 6 0 12 -7 12 -15 0 -8 8 -16 18 -18 9 -2 17 1 17 7 0 6 -7 7
-17 4 -11 -4 -14 -3 -9 6 5 7 14 10 21 7 8 -3 19 3 26 12 8 9 10 14 5 10 -15
-13 -46 12 -45 35 1 17 2 18 6 5 5 -21 19 -23 29 -6 4 6 3 8 -3 5 -6 -4 -13 0
-17 8 -3 8 -11 12 -19 9 -8 -3 -14 2 -14 11 0 8 6 15 13 15 7 0 22 9 33 21 12
13 21 17 26 10 3 -6 1 -11 -6 -11 -9 0 -9 -3 0 -14 10 -12 8 -13 -8 -9 -12 3
-21 1 -21 -6 0 -7 8 -11 18 -9 10 2 16 -2 14 -10 -1 -8 2 -11 8 -7 17 10 11
-7 -6 -20 -15 -10 -15 -12 -1 -12 9 0 19 7 21 14 3 8 10 11 16 8 6 -4 1 -14
-12 -25 -13 -11 -17 -19 -10 -20 6 0 12 -8 12 -17 0 -15 -2 -16 -10 -3 -6 9
-10 11 -10 3 0 -7 -7 -10 -16 -6 -14 5 -14 3 -3 -16 8 -12 15 -17 17 -11 2 5
8 10 13 10 6 0 8 -4 4 -9 -3 -6 5 -15 17 -22 19 -9 21 -9 11 2 -18 18 -16 32
7 57 17 18 18 22 5 22 -8 0 -15 5 -15 11 0 5 6 7 13 3 8 -5 8 -2 -2 9 -14 18
-12 20 13 11 9 -3 14 -9 12 -13 -3 -4 -1 -13 5 -21 7 -13 9 -13 9 0 0 13 1 13
10 0 5 -8 10 -10 10 -4 0 7 11 9 25 6 14 -2 25 -9 25 -14 0 -5 5 -6 10 -3 6 3
10 2 10 -3 0 -6 20 -19 45 -31 25 -12 45 -23 45 -26 0 -3 -9 -1 -19 5 -13 7
-22 7 -26 0 -3 -5 -2 -10 2 -10 12 0 44 -125 37 -144 -3 -9 -1 -16 5 -16 6 0
11 -6 11 -13 0 -9 10 -12 31 -9 22 3 30 1 25 -7 -4 -6 -11 -9 -15 -7 -4 3 -13
0 -21 -5 -10 -6 -4 -8 20 -4 45 8 126 -13 110 -29 -8 -8 -14 -7 -21 4 -7 11
-8 6 -3 -15 4 -16 11 -35 15 -41 5 -6 6 -14 2 -17 -3 -4 -1 -7 5 -7 15 0 16
17 2 25 -11 7 -4 25 9 25 10 0 21 -60 12 -61 -3 0 -15 -3 -26 -5 -44 -11 -115
-14 -115 -5 0 5 12 8 28 6 36 -5 59 2 59 19 0 12 -6 12 -39 0 -21 -7 -38 -11
-38 -7 0 3 -11 -2 -25 -11 -14 -9 -25 -14 -25 -11 0 10 23 31 43 38 9 3 17 12
17 18 0 8 -4 8 -15 -1 -12 -10 -16 -9 -21 4 -4 11 -10 13 -18 8 -11 -9 -24
-11 -76 -13 -17 -1 -19 -3 -7 -6 9 -2 17 -9 17 -14 0 -6 -6 -7 -12 -3 -10 6
-10 4 0 -7 18 -20 15 -29 -10 -25 -13 2 -31 -1 -41 -6 -17 -9 -17 -10 3 -28
11 -10 17 -21 11 -24 -5 -3 -11 0 -14 6 -3 10 -10 8 -26 -6 -25 -23 -29 -3 -6
28 8 11 15 31 15 44 0 13 7 30 15 38 18 19 19 11 3 -16 -7 -10 -8 -23 -4 -27
5 -4 11 -2 14 6 4 11 6 11 13 0 7 -11 9 -10 9 4 0 16 -10 39 -37 86 -2 2 -10
-2 -18 -9 -11 -9 -12 -15 -5 -20 8 -5 7 -10 -3 -19 -12 -9 -16 -3 -21 40 -7
50 -7 51 -26 34 -19 -18 -20 -17 -20 8 0 15 4 27 10 27 5 0 7 -8 3 -17 -3 -10
7 -3 23 15 15 18 29 39 30 45 1 7 4 24 7 40 8 37 -23 55 -49 30 -13 -13 -19
-14 -22 -5 -2 6 -8 12 -14 12 -7 0 -7 -4 -1 -12 6 -7 9 -21 7 -31 -1 -11 2
-17 10 -14 6 3 21 -2 31 -10 19 -13 19 -14 -7 -9 -22 4 -26 1 -23 -15 2 -10 0
-19 -6 -19 -5 0 -9 9 -9 21 0 11 -5 17 -10 14 -6 -4 -8 -11 -5 -16 4 -5 1 -9
-6 -9 -6 0 -9 8 -6 20 4 16 0 20 -21 19 -23 0 -24 -2 -8 -8 18 -7 18 -8 -5
-24 l-23 -17 22 0 c12 0 22 -6 22 -13 0 -20 -20 -36 -39 -31 -9 3 -6 -1 7 -7
12 -7 22 -18 22 -24 0 -16 28 -27 32 -13 3 7 16 8 36 3 35 -7 39 -28 6 -32
-18 -3 -18 -3 0 5 19 8 18 9 -4 15 -33 9 -49 -9 -25 -27 11 -8 25 -12 32 -9
16 6 18 -13 2 -22 -6 -4 -8 -14 -4 -23 3 -8 -4 -25 -16 -38 -21 -22 -23 -23
-36 -6 -8 9 -12 12 -9 5 4 -6 2 -14 -4 -18 -5 -3 -10 3 -10 14 0 10 4 21 10
23 6 2 6 16 -1 41 -5 21 -14 35 -19 32 -5 -3 -11 -1 -15 5 -4 6 -11 8 -16 5
-5 -4 -9 0 -9 9 0 8 5 16 11 18 8 3 8 10 -2 26 -12 19 -12 24 0 31 8 5 11 16
6 30 l-6 21 -19 -22 c-11 -13 -19 -18 -20 -12 0 7 -16 15 -35 18 -37 7 -45 25
-21 49 8 7 16 38 18 68 1 30 8 57 13 62 6 4 -3 5 -18 3 -19 -3 -27 -1 -24 7 2
7 11 11 20 11 15 -1 18 20 4 31 -4 3 -5 2 -2 -2 3 -3 -4 -12 -15 -20 -12 -9
-18 -22 -16 -36 4 -23 -19 -57 -38 -57 -15 1 -79 60 -72 67 3 4 15 -2 26 -12
19 -17 19 -17 17 14 -1 20 -6 30 -14 26 -7 -2 -13 1 -13 8 0 6 -7 1 -16 -11
-9 -13 -13 -29 -10 -37 3 -8 1 -17 -4 -20 -6 -4 -10 7 -10 24 0 17 5 31 10 31
6 0 10 7 10 16 0 12 6 15 26 10 17 -5 25 -3 22 4 -2 6 -6 10 -10 8 -3 -2 -14
4 -24 13 -26 23 -64 41 -64 32 0 -5 14 -14 32 -21 17 -6 29 -14 26 -18 -3 -3
-25 4 -47 14 -23 11 -41 16 -41 10 0 -6 -7 -4 -17 3 -11 10 -14 10 -9 2 12
-21 -5 -15 -25 10 l-19 22 9 -25 c6 -17 16 -25 34 -26 32 -1 57 -26 56 -56 -1
-19 -2 -20 -6 -4 -8 30 -32 51 -45 38 -7 -7 -4 -12 8 -16 28 -9 46 -52 28 -67
-11 -9 -14 -6 -14 19 0 22 -6 32 -20 37 -11 3 -20 12 -20 20 0 18 -30 28 -46
14 -11 -9 -14 -8 -14 5 0 9 7 16 15 16 8 0 15 5 15 10 0 6 -5 10 -11 10 -17 0
-48 43 -49 68 0 12 -7 25 -15 28 -8 4 -15 12 -15 20 0 21 -69 30 -100 12 -29
-16 -50 -13 -50 8 0 13 15 18 48 17 10 -1 10 3 -1 21 -8 11 -17 33 -21 49 -7
30 -21 35 -30 12 -3 -9 0 -15 8 -15 8 0 16 -9 19 -20 3 -11 1 -20 -4 -20 -5 0
-9 7 -9 16 0 10 -6 14 -15 10 -17 -6 -19 7 -5 35 6 10 20 19 30 19 11 0 20 7
20 16 0 8 -5 12 -10 9 -6 -4 -18 -1 -26 6 -26 22 -39 18 -41 -12 -1 -16 2 -29
8 -29 6 0 7 -5 4 -10 -4 -6 -11 -7 -17 -4 -6 4 -6 -1 1 -14 8 -15 7 -23 -3
-31 -17 -15 -46 11 -46 40 0 26 26 54 33 36 4 -9 6 -9 6 0 1 7 -8 17 -19 23
-21 11 -29 70 -10 70 6 0 10 7 10 15 0 8 -5 15 -11 15 -5 0 -8 -4 -4 -9 3 -5
-4 -16 -16 -24 -13 -9 -16 -17 -10 -22 6 -3 11 -15 11 -25 0 -10 5 -20 12 -22
9 -3 9 -6 0 -12 -7 -4 -14 0 -18 11 -3 10 -10 26 -15 35 -5 10 -9 33 -9 52 0
19 -6 36 -12 38 -10 4 -10 16 -1 59 6 32 7 58 2 64 -5 5 -9 18 -9 28 0 14 5
18 20 14 15 -4 20 0 20 14 0 10 7 19 15 19 8 0 15 -4 15 -10 0 -20 35 -9 47
15 6 14 7 23 2 19 -13 -8 -11 10 3 24 14 14 42 16 34 3 -3 -5 4 -11 16 -14 17
-5 19 -9 10 -20 -10 -12 -8 -13 14 -9 19 3 25 1 20 -7 -4 -6 -2 -11 3 -11 6 0
11 -5 11 -11 0 -5 -5 -7 -12 -3 -7 5 -8 3 -2 -7 5 -8 9 -18 9 -24 1 -16 -55
-95 -68 -95 -7 -1 -2 -6 11 -13 12 -7 19 -17 15 -22 -4 -4 -2 -5 5 -1 7 4 10
11 7 16 -8 13 18 18 38 8 21 -11 32 -5 23 11 -4 6 -13 8 -21 4 -10 -3 -15 1
-15 12 0 10 5 13 12 9 7 -5 8 -3 3 6 -4 7 -2 15 4 19 6 4 14 31 18 61 4 39 3
51 -5 46 -8 -5 -12 4 -12 30 0 31 -2 35 -15 24 -12 -10 -15 -10 -15 4 0 9 5
16 10 16 6 0 10 12 10 26 0 15 4 23 11 19 6 -4 13 2 16 14 3 12 16 24 29 27
13 3 24 10 24 16 0 14 39 52 47 45 3 -4 1 -7 -6 -7 -6 0 -11 -8 -9 -17 2 -12
-2 -17 -12 -15 -12 3 -11 0 2 -15 14 -15 14 -21 3 -36 -8 -11 -11 -25 -9 -32
3 -7 -9 -23 -25 -35 -17 -12 -31 -29 -31 -38 0 -15 -2 -15 -11 -2 -9 13 -10
13 -5 0 3 -8 9 -23 12 -32 4 -10 10 -18 16 -18 5 0 5 7 -1 18 -7 13 -4 23 14
40 26 25 47 29 39 8 -3 -8 -1 -22 4 -31 8 -16 9 -16 15 -1 4 10 3 15 -3 11 -6
-3 -10 -1 -10 4 0 6 7 11 15 11 8 0 15 5 15 10 0 6 7 10 16 10 12 0 10 -7 -10
-31 -33 -39 -23 -63 28 -65 40 -1 41 1 20 36 -8 14 -13 17 -10 8 3 -10 1 -20
-4 -23 -6 -4 -10 5 -10 19 0 17 6 26 15 26 9 0 20 12 25 26 8 21 15 25 34 20
17 -4 26 -1 30 10 10 27 7 39 -6 26 -17 -17 -38 -15 -38 3 0 9 9 15 23 15 41
1 60 25 53 65 -9 49 2 64 26 34 16 -21 17 -21 12 -4 -5 17 -4 18 8 5 7 -8 25
-21 41 -27 22 -10 27 -10 27 0 0 7 -6 19 -12 27 -11 12 -10 12 5 1 9 -7 17 -9
17 -3 0 5 13 15 30 22 18 7 27 17 23 24 -4 6 -6 20 -5 31 2 17 1 17 -7 5 -8
-11 -11 -11 -11 -2 0 7 -5 10 -10 7 -6 -4 -4 -12 5 -21 17 -18 20 -34 5 -34
-5 0 -10 4 -10 9 0 5 -8 7 -18 4 -25 -6 -72 14 -72 31 0 9 -7 12 -19 9 -10 -2
-25 2 -33 11 -9 8 -18 12 -22 9 -3 -4 -6 -1 -6 5 0 7 9 12 21 12 13 0 18 -4
13 -12 -4 -7 -3 -8 4 -4 7 4 12 2 12 -3 0 -6 5 -11 12 -11 9 0 9 3 0 12 -7 7
-12 24 -12 38 0 32 33 53 76 48 l29 -3 -32 -23 c-19 -14 -34 -18 -38 -12 -3 6
4 14 17 19 22 9 22 10 2 10 -12 1 -27 -6 -34 -14 -10 -12 -10 -15 1 -15 11 0
11 -3 -1 -11 -12 -9 -13 -10 0 -7 18 5 51 -22 43 -35 -3 -6 -1 -7 5 -3 7 4 12
1 12 -8 0 -10 6 -13 15 -10 8 4 15 13 15 21 0 9 6 12 19 8 12 -4 21 0 25 11 5
13 9 14 21 4 12 -10 15 -10 15 2 0 15 -46 19 -66 6 -14 -10 -36 36 -23 49 5 5
3 17 -7 29 -8 10 -13 13 -9 7 3 -7 1 -13 -6 -13 -6 0 -9 8 -6 20 3 11 1 20 -5
20 -6 0 -8 9 -5 20 8 32 -19 24 -45 -12 -13 -18 -23 -35 -23 -38 0 -2 -6 -5
-13 -7 -8 -1 -17 -5 -20 -9 -4 -4 1 -4 10 -1 23 8 32 -8 13 -23 -12 -10 -15
-10 -15 0 0 9 -9 10 -32 5 -18 -4 -39 -7 -45 -8 -7 0 -13 -4 -13 -9 0 -4 -7
-8 -15 -8 -8 0 -15 5 -15 11 0 5 5 7 10 4 6 -4 5 5 -2 19 -12 28 -42 34 -55
12 -5 -9 -15 -11 -28 -5 -11 4 -14 8 -7 8 17 1 15 18 -4 25 -8 3 -12 2 -9 -3
11 -19 -12 -18 -80 4 -47 15 -69 27 -67 36 3 11 1 11 -9 2 -15 -15 -39 -6 -39
15 0 13 -3 12 -15 -4 -13 -18 -14 -18 -8 5 6 23 6 23 -20 6 -18 -11 -31 -14
-44 -7 -10 5 -22 8 -28 6 -5 -2 -19 15 -30 39 -13 26 -26 41 -35 38 -8 -2 -27
-4 -42 -4 -15 0 -25 -4 -22 -9 3 -5 -6 -7 -20 -4 -31 6 -34 -2 -5 -12 20 -8
20 -9 3 -23 -16 -12 -17 -12 -9 1 8 13 7 13 -8 1 -15 -12 -17 -11 -17 8 0 11
-4 21 -9 21 -5 0 -9 -10 -8 -22 0 -13 -2 -29 -4 -37 -2 -9 8 -18 29 -24 17 -5
32 -14 32 -19 0 -5 14 -7 31 -3 40 9 108 -3 88 -16 -11 -7 -10 -9 5 -9 13 0
16 -3 8 -12 -7 -9 -5 -17 6 -27 14 -13 15 -11 9 22 -3 22 -2 35 4 32 5 -4 9
-14 9 -25 0 -25 26 -32 42 -12 11 15 11 15 -3 5 -9 -7 -19 -10 -22 -6 -14 13
-6 23 18 23 14 0 25 -4 25 -8 0 -14 -39 -46 -47 -39 -3 4 -13 1 -21 -6 -12 -9
-16 -9 -19 1 -3 6 -8 10 -13 7 -4 -3 -11 10 -14 29 -6 30 -9 33 -41 31 -41 -1
-74 -25 -36 -25 19 0 22 -4 19 -23 -2 -13 0 -27 6 -33 15 -12 95 -11 126 3 14
6 41 14 60 18 19 4 40 10 45 14 6 3 4 -1 -5 -9 -20 -21 -23 -40 -6 -40 7 0 21
15 30 33 8 17 16 27 16 20 0 -7 7 -10 17 -6 12 5 14 3 8 -7 -5 -9 -4 -11 4 -6
13 9 108 -20 117 -36 4 -5 -1 -17 -9 -26 -13 -13 -19 -13 -32 -2 -8 7 -16 11
-18 9 -33 -58 -33 -59 -4 -58 21 0 21 1 2 9 -15 7 -16 9 -4 9 9 1 22 -6 29
-14 7 -8 18 -15 24 -14 7 0 6 2 -1 6 -22 8 -14 32 12 39 14 3 25 10 25 15 0 5
8 9 18 9 19 0 28 -35 11 -46 -6 -4 -6 -11 2 -20 6 -7 9 -21 5 -29 -3 -8 -2
-15 3 -15 5 0 11 14 13 30 3 17 0 30 -6 30 -6 0 -3 7 5 15 14 14 19 14 48 -1
23 -12 30 -19 22 -27 -18 -18 -13 -27 16 -27 26 0 26 -1 10 -17 -13 -13 -19
-15 -29 -5 -7 7 -17 12 -23 12 -5 0 -4 -4 3 -9 11 -7 10 -9 -3 -14 -9 -4 -18
-1 -21 8 -5 12 -10 12 -32 -3 -25 -16 -25 -16 -19 10 9 33 -11 32 -46 -1 l-24
-22 -6 23 -6 22 -26 -24 -27 -25 -18 23 c-13 15 -20 18 -23 10 -3 -7 -6 -4 -7
7 -2 46 -28 67 -82 68 -32 0 -34 3 -13 23 8 9 15 23 15 32 0 15 -2 15 -10 2
-7 -11 -10 -11 -10 -2 0 7 -5 10 -11 6 -8 -4 -7 -9 2 -15 11 -7 11 -12 -4 -26
-15 -14 -18 -15 -17 -3 5 37 1 44 -18 27 -10 -10 -22 -15 -25 -12 -4 3 -5 2
-2 -2 3 -3 -1 -13 -8 -21 -8 -11 -8 -14 0 -9 6 4 14 3 18 -3 3 -5 18 -7 32 -4
18 5 24 3 19 -5 -9 -14 6 -15 20 -1 7 7 21 7 42 -1 27 -9 30 -14 22 -30 -8
-14 -6 -21 12 -30 21 -11 21 -12 3 -25 -10 -8 -14 -14 -8 -14 7 0 15 5 18 10
3 6 11 10 17 10 7 0 6 -6 -2 -15 -11 -13 -9 -15 13 -15 33 0 41 -23 16 -46
-34 -31 -50 -27 -43 10 4 25 2 33 -10 33 -8 0 -13 -4 -10 -8 2 -4 0 -10 -6
-14 -5 -3 -10 -1 -10 5 0 6 -4 9 -9 5 -5 -3 -12 -1 -16 4 -8 14 -42 9 -42 -6
0 -10 4 -10 11 -3 14 14 26 13 26 -4 0 -19 -39 -65 -40 -47 0 10 -3 11 -13 2
-8 -6 -16 -9 -18 -7 -2 3 -9 -6 -16 -20 -10 -23 -9 -24 19 -24 25 0 28 -2 18
-14 -6 -8 -24 -16 -38 -18 -19 -2 -28 -10 -30 -25 -3 -21 -32 -54 -32 -36 0 5
-7 10 -15 10 -8 0 -15 -9 -15 -19 0 -11 7 -18 19 -18 26 0 33 -23 15 -49 -17
-23 -40 -28 -47 -8 -4 7 -6 6 -6 -4 -1 -21 -31 -48 -31 -29 0 9 -7 7 -20 -5
-19 -18 -20 -17 -20 2 0 19 -16 32 -48 39 -6 1 -10 -2 -7 -6 3 -5 1 -11 -5
-15 -5 -3 -10 3 -10 14 0 12 6 21 14 21 10 0 11 7 2 34 -8 28 -13 32 -24 23
-10 -7 -11 -12 -3 -15 6 -2 8 -8 5 -13 -3 -6 -12 -5 -22 3 -13 11 -13 9 1 -13
16 -25 16 -27 -3 -44 -21 -19 -21 -19 -19 16 1 18 0 40 -2 48 -2 8 6 17 21 22
15 4 18 7 8 8 -9 1 -24 4 -34 8 -14 5 -16 2 -12 -20 6 -29 -6 -37 -16 -12 -8
21 -26 19 -26 -2 0 -15 2 -16 10 -3 5 8 10 10 10 5 0 -6 -7 -20 -15 -32 -13
-19 -13 -21 7 -26 16 -5 19 -9 11 -19 -6 -7 -9 -21 -8 -30 4 -24 -20 -41 -46
-33 -16 6 -20 13 -17 36 4 23 2 26 -9 18 -9 -9 -13 -8 -13 0 0 15 25 41 40 41
6 0 13 14 17 31 3 19 14 34 25 36 10 3 18 9 18 13 0 5 8 11 18 13 13 4 11 5
-5 6 -32 1 -30 31 2 31 16 0 25 6 25 15 0 13 3 13 20 3 26 -17 25 -33 -2 -52
l-22 -16 21 0 c12 0 28 -3 37 -6 11 -4 16 -1 16 10 0 9 8 17 18 17 15 1 15 2
-1 6 -13 3 -17 11 -14 25 4 14 1 18 -8 14 -7 -2 -16 3 -20 12 -5 14 -7 14 -15
2 -8 -12 -10 -12 -10 -1 0 8 -7 11 -20 8 -16 -4 -20 -1 -18 16 2 12 0 23 -4
25 -5 1 -8 -1 -7 -4 1 -9 -23 -24 -38 -24 -7 0 -13 8 -13 18 0 14 2 15 10 2 5
-8 12 -11 17 -7 4 5 1 12 -6 16 -21 13 -2 33 25 27 13 -4 24 -2 24 3 0 4 3 23
7 41 4 24 3 31 -5 26 -8 -5 -13 2 -13 18 -1 14 -2 31 -3 36 -1 6 4 10 9 10 6
0 10 -6 10 -12 0 -7 10 -14 22 -16 15 -2 20 -8 17 -20 -5 -14 -4 -15 5 -2 9
13 12 12 25 -5 9 -11 15 -15 15 -10 0 17 -26 45 -34 37 -5 -4 -5 -1 -1 6 7 11
11 10 25 -2 10 -9 23 -16 29 -16 7 0 12 -5 12 -11 0 -5 6 -7 13 -3 9 5 9 3 -1
-7 -11 -12 -14 -12 -22 1 -9 13 -10 13 -11 0 0 -8 -2 -23 -4 -33 -3 -14 1 -17
13 -12 38 16 55 18 48 6 -4 -6 -12 -8 -18 -5 -7 4 -8 2 -4 -4 4 -7 16 -12 26
-12 10 0 22 -5 25 -10 10 -16 -13 -39 -34 -33 -27 7 -35 -14 -12 -29 19 -11
19 -14 4 -30 -14 -16 -14 -18 3 -24 11 -4 28 -14 39 -23 19 -15 19 -15 5 3
-13 17 -13 18 5 14 11 -2 19 -9 18 -15 -1 -6 9 -13 22 -16 28 -5 34 8 7 15
-10 3 -18 14 -19 25 -1 15 7 23 30 30 l32 10 -27 8 c-16 4 -28 11 -28 16 0 5
12 4 26 -1 14 -6 29 -10 35 -10 12 0 7 43 -6 52 -6 5 -3 8 7 8 12 0 19 11 24
35 4 21 13 37 25 40 22 7 42 -2 34 -16 -4 -5 0 -9 8 -9 9 0 12 9 9 30 -3 18 0
30 7 30 6 0 11 4 11 8 0 9 -41 8 -57 -1 -6 -4 -13 3 -17 15 -5 22 -5 22 -34
-5 -16 -15 -32 -24 -36 -20 -4 4 -4 0 -1 -9 8 -20 -28 -63 -44 -53 -6 3 -11
16 -11 27 0 20 -1 21 -20 3 -11 -10 -20 -13 -20 -7 0 7 -3 11 -7 10 -13 -2
-86 33 -80 38 3 3 14 1 25 -5 31 -17 40 -13 44 16 2 21 10 29 36 37 17 5 32
13 32 18 0 5 -4 6 -10 3 -5 -3 -10 -1 -10 6 0 10 -3 10 -11 2 -14 -14 -39 -6
-39 12 0 15 -37 27 -45 15 -3 -5 1 -10 7 -13 10 -4 10 -7 1 -18 -29 -30 -50
-16 -44 30 2 7 -2 10 -8 7 -5 -4 -12 -2 -16 4 -3 5 1 10 10 10 8 0 23 9 32 20
10 11 23 20 30 20 7 0 13 5 13 11 0 5 -5 7 -12 3 -8 -5 -9 -2 -5 10 8 20 -6
14 -40 -17 -14 -12 -23 -16 -23 -8 0 7 -4 10 -9 6 -6 -3 -14 3 -20 12 -6 10
-11 12 -11 6 0 -7 -7 -13 -16 -13 -8 0 -12 5 -9 10 8 13 -1 13 -26 -1 -17 -9
-20 -7 -17 7 2 11 -4 20 -14 22 -10 2 -18 -2 -18 -8 0 -6 4 -9 9 -6 5 3 9 -6
9 -19 0 -17 -6 -25 -18 -25 -25 0 -29 8 -17 41 8 20 18 29 34 29 29 0 30 16 2
23 -16 4 -20 11 -16 27 3 11 -1 27 -9 34 -8 8 -14 19 -14 23 0 5 -7 18 -16 29
-8 10 -13 13 -9 7 3 -7 1 -13 -4 -13 -6 0 -11 7 -11 16 0 11 6 15 20 11 11 -3
18 -1 14 4 -8 14 -38 11 -60 -6 -17 -13 -17 -14 -2 -15 12 0 15 -5 11 -16 -5
-13 -7 -13 -14 -2 -6 9 -9 9 -9 1 0 -10 40 -40 48 -35 9 7 22 0 17 -8 -4 -6
-11 -8 -16 -5 -5 4 -9 -4 -10 -17 l-1 -23 -7 24 c-3 13 -14 25 -24 27 -9 1
-14 -2 -11 -7 3 -6 0 -16 -6 -24 -10 -12 -9 -15 5 -15 17 0 17 -1 0 -20 -17
-19 -17 -20 -1 -20 9 0 14 -5 11 -10 -4 -6 -11 -7 -17 -4 -6 4 -8 2 -4 -4 3
-5 0 -13 -6 -15 -7 -3 5 -3 27 0 40 6 40 6 22 -15 -11 -11 -25 -18 -33 -15 -8
3 -14 0 -14 -6 0 -6 10 -11 21 -11 18 0 19 -2 9 -15 -16 -19 -30 -19 -30 -1 0
12 -4 12 -30 0 -16 -9 -36 -24 -43 -35 -8 -10 -17 -16 -21 -11 -4 4 -6 2 -4
-4 3 -12 -8 -15 -29 -7 -18 7 -16 43 1 43 8 0 17 -4 21 -10 8 -13 35 -1 35 16
0 8 7 14 15 14 10 0 15 10 15 30 0 17 6 33 14 36 8 3 12 12 9 20 -4 11 -9 12
-18 4 -7 -6 -15 -7 -17 -3 -3 4 -3 3 -2 -4 2 -7 -6 -22 -16 -35 -16 -19 -19
-20 -20 -5 0 9 5 17 10 17 6 0 10 7 10 15 0 12 -4 13 -19 5 -15 -7 -23 -6 -34
4 -10 11 -17 12 -25 4 -8 -8 -13 -7 -18 6 -4 11 -1 22 7 27 12 8 12 10 -1 19
-12 7 -20 1 -37 -28 -13 -20 -30 -43 -40 -49 -10 -8 -12 -13 -4 -13 7 0 9 -5
6 -10 -5 -8 -12 -7 -23 2 -15 11 -15 11 -4 -3 10 -13 10 -19 -2 -28 -8 -7 -17
-22 -20 -36 -5 -18 -12 -23 -31 -20 -15 1 -25 -3 -25 -11 0 -8 -8 -11 -20 -9
-11 2 -18 0 -15 -5 3 -5 1 -11 -4 -14 -5 -4 -11 3 -13 14 -3 19 -5 19 -31 5
-15 -8 -34 -12 -42 -9 -13 5 -13 3 0 -22 7 -15 12 -31 9 -36 -3 -4 0 -8 6 -8
8 0 9 -7 5 -17 -16 -41 -14 -53 11 -59 20 -5 22 -9 13 -20 -10 -12 -13 -12
-24 2 -9 13 -14 14 -19 5 -6 -9 -11 -9 -22 0 -8 6 -17 9 -20 6 -3 -3 4 -11 16
-17 18 -10 24 -9 31 1 5 9 9 10 9 3 0 -7 -9 -22 -20 -35 -19 -24 -19 -24 -20
-3 0 12 -7 25 -16 28 -11 4 -15 14 -11 31 2 14 0 28 -6 32 -5 3 -7 1 -3 -5 3
-6 1 -14 -4 -17 -8 -5 -9 5 -4 30 6 36 6 37 -15 26 -16 -9 -21 -9 -21 1 0 19
39 50 55 44 9 -3 12 0 8 9 -3 8 2 18 11 21 17 7 22 43 6 45 -5 1 -14 3 -20 4
-5 1 -14 3 -20 4 -17 2 -11 31 7 31 21 0 8 13 -17 17 -10 1 -22 -2 -25 -8 -5
-6 -12 -6 -23 3 -15 12 -16 11 -3 -4 7 -10 20 -18 27 -18 8 0 14 -10 14 -25 0
-14 5 -25 11 -25 8 0 8 -4 0 -14 -7 -8 -23 -13 -36 -11 -13 1 -24 -1 -23 -4 2
-19 -4 -21 -18 -7 -10 11 -21 13 -31 7 -9 -4 -24 -6 -34 -4 -14 4 -16 0 -12
-16 5 -22 23 -29 23 -10 0 5 5 7 10 4 6 -4 8 -11 5 -16 -4 -5 -1 -9 6 -9 7 0
6 -8 -5 -25 -16 -24 -16 -25 4 -25 12 0 20 -7 21 -17 1 -17 2 -17 6 0 2 9 8
17 13 17 5 0 7 7 4 15 -4 8 -10 12 -15 9 -5 -3 -9 5 -9 17 0 16 5 20 20 16 13
-3 20 0 20 9 0 8 7 14 15 14 12 0 11 -6 -5 -35 -17 -30 -17 -35 -4 -35 13 0
12 -5 -6 -30 -12 -16 -25 -29 -30 -27 -4 1 -7 -1 -7 -4 1 -3 -4 -13 -12 -22
-9 -12 -10 -17 -2 -17 7 0 10 -4 6 -9 -3 -5 -1 -12 5 -16 6 -4 0 -20 -16 -41
-15 -19 -29 -33 -31 -30 -11 10 -9 42 3 53 15 15 28 17 19 3 -3 -5 -1 -10 4
-10 13 0 14 11 3 25 -9 13 -33 18 -29 6 1 -5 -2 -10 -8 -11 -5 0 -11 6 -13 14
-2 10 4 16 16 16 23 0 37 26 19 34 -7 2 -4 5 6 5 10 1 17 9 17 21 0 29 -12 25
-32 -11 -10 -16 -13 -27 -6 -23 6 4 8 3 5 -3 -4 -6 -20 -16 -37 -21 -25 -9
-30 -8 -30 5 0 9 6 13 14 10 10 -4 12 0 9 14 -6 23 -45 26 -63 4 -7 -9 -19
-14 -25 -11 -7 2 -18 -1 -24 -7 -24 -24 -41 -16 -41 20 0 30 -2 34 -15 23 -12
-10 -15 -9 -15 5 0 10 3 15 6 12 14 -14 42 13 37 34 -6 22 -4 22 60 15 62 -6
85 2 57 19 -5 3 -10 14 -10 23 0 12 3 13 12 4 18 -18 18 -42 2 -74 -13 -26
-13 -29 3 -35 10 -4 21 -11 25 -17 5 -7 8 -7 8 2 0 7 -10 17 -22 22 -20 8 -11
15 14 11 4 0 4 7 1 16 -4 11 -3 14 5 9 7 -4 12 -14 12 -22 0 -8 4 -14 10 -14
5 0 7 6 4 14 -3 8 -1 17 5 21 14 8 14 25 1 25 -5 0 -10 -8 -10 -17 0 -15 -4
-13 -20 7 -10 14 -15 27 -10 28 6 2 10 8 10 13 0 6 -4 8 -8 5 -5 -3 -16 3 -24
14 -14 16 -15 19 -2 24 9 3 12 1 9 -4 -3 -6 -1 -10 5 -10 7 0 14 9 17 20 5 19
6 20 19 3 13 -17 14 -17 8 0 -4 11 -1 17 10 17 9 0 16 5 16 10 0 6 5 10 11 10
5 0 7 -4 4 -10 -3 -5 -2 -10 4 -10 6 0 7 -8 4 -17 -5 -13 -2 -15 11 -10 10 4
26 7 37 7 12 0 19 7 19 19 0 14 -6 17 -25 13 -21 -4 -25 0 -26 19 -1 13 -1 27
0 31 0 4 -12 5 -27 2 -20 -3 -23 -2 -12 6 12 8 10 10 -9 10 -24 0 -24 1 -6 14
17 12 21 12 31 -1 10 -14 12 -14 17 1 5 12 3 15 -6 10 -6 -4 4 9 23 29 33 33
50 39 50 16 0 -6 -4 -8 -8 -5 -5 3 -9 -1 -9 -9 0 -8 4 -12 8 -10 3 3 12 -2 18
-9 9 -11 9 -16 0 -21 -6 -4 -14 -4 -18 1 -3 5 -14 15 -23 22 -15 12 -17 11
-13 -9 3 -12 9 -27 15 -33 8 -8 9 -5 4 9 -6 16 -5 18 7 9 8 -6 26 -13 41 -16
21 -4 25 -2 20 11 -3 9 -14 22 -24 29 -18 13 -16 32 3 32 6 0 8 -4 4 -9 -3 -5
-1 -13 5 -16 6 -4 9 -3 8 2 -3 12 12 53 20 53 4 0 12 -11 19 -25 10 -22 9 -25
-5 -23 -11 2 -17 -5 -18 -19 -1 -17 4 -23 20 -22 11 0 15 3 9 6 -10 3 -10 8 1
19 18 17 29 18 21 2 -4 -7 0 -5 8 4 8 10 17 16 20 13 4 -3 5 -2 1 2 -3 4 -14
8 -26 8 -14 0 -22 8 -24 23 -3 16 0 21 8 16 7 -4 10 -4 6 1 -4 4 -2 15 5 24
10 14 10 14 -5 3 -12 -9 -18 -10 -23 -2 -4 6 -13 9 -21 6 -8 -3 -14 0 -14 5 0
7 11 9 25 7 13 -3 23 -1 22 5 -1 5 4 12 12 15 9 3 11 0 7 -7 -6 -8 -1 -10 16
-6 16 4 29 1 37 -9 8 -9 21 -16 30 -16 14 1 14 2 -1 11 -10 5 -18 19 -18 29 0
11 -5 20 -11 20 -5 0 -7 -4 -4 -10 3 -5 1 -10 -4 -10 -6 0 -11 5 -11 11 0 5
-4 7 -10 4 -6 -4 -10 5 -10 19 0 14 5 26 10 26 5 0 9 -6 8 -12 -2 -7 8 -14 21
-16 15 -2 21 0 16 7 -3 6 -11 9 -16 6 -5 -4 -9 0 -9 9 0 17 14 16 58 -6 30
-16 32 -16 32 2 0 14 -6 18 -25 15 -41 -4 -28 10 19 21 25 5 43 6 40 2 -3 -4
0 -8 6 -8 6 0 13 7 16 15 4 8 14 15 23 15 9 0 12 -3 6 -8 -11 -8 -12 -29 0
-54 4 -10 5 -25 1 -33 -3 -9 1 -15 11 -15 13 0 13 -3 3 -15 -10 -12 -10 -15 0
-15 10 0 10 -3 0 -15 -9 -11 -9 -15 -1 -15 7 0 9 -4 6 -10 -3 -5 -1 -10 5 -10
7 0 10 7 6 15 -3 8 -1 15 4 15 6 0 10 7 10 15 0 20 12 19 57 -7 36 -21 37 -21
18 -1 -11 11 -23 19 -26 17 -3 -2 -11 8 -18 22 -9 22 -14 24 -26 14 -12 -10
-15 -9 -15 4 0 9 7 16 15 16 8 0 15 5 15 11 0 6 -7 9 -15 5 -8 -3 -15 -1 -15
4 0 6 8 10 18 11 13 0 14 2 2 6 -19 7 -30 24 -29 43 0 10 2 11 6 3 3 -10 10
-9 26 2 25 16 69 16 60 0 -3 -5 -15 -20 -26 -32 -17 -19 -18 -23 -5 -23 9 0
22 -2 30 -3 7 -2 10 -2 7 0 -12 7 3 43 18 43 13 0 13 -3 3 -15 -9 -11 -9 -15
-1 -15 7 0 9 -4 6 -10 -3 -5 -1 -10 4 -10 6 0 11 18 11 41 0 24 -4 38 -10 34
-5 -3 -10 -2 -10 3 0 6 16 9 35 7 19 -2 35 0 35 4 0 4 14 8 31 8 31 0 31 0 7
-13z m223 -348 c-9 -11 -9 -16 -1 -21 7 -4 10 -16 7 -26 -3 -11 -1 -17 4 -13
8 5 13 -9 11 -28 -1 -3 5 -9 14 -12 8 -3 12 -2 9 4 -3 6 1 10 10 10 9 0 13 -5
10 -11 -4 -6 2 -13 14 -16 11 -3 18 -9 15 -14 -3 -5 -10 -6 -16 -3 -19 12 -67
14 -73 4 -3 -6 -14 -10 -23 -10 -13 0 -14 2 -4 9 11 7 11 9 -2 14 -10 4 -13
13 -9 24 5 15 3 15 -11 -2 -15 -18 -17 -19 -29 -4 -9 12 -18 14 -35 8 -25 -9
-30 -29 -7 -29 8 0 15 5 15 10 0 6 5 10 11 10 5 0 7 -5 3 -12 -5 -7 -3 -8 6
-3 10 6 12 4 7 -8 -3 -10 -2 -17 4 -17 5 0 2 -12 -8 -26 -9 -15 -19 -22 -21
-16 -2 6 -10 8 -19 5 -11 -4 -14 -2 -9 5 4 7 14 12 22 12 9 0 14 6 11 13 -2 6
-11 10 -18 8 -8 -2 -26 -4 -41 -5 -31 -1 -64 -26 -35 -26 9 0 17 4 17 8 0 5 7
9 15 9 9 0 14 -6 11 -13 -3 -7 0 -15 7 -17 9 -3 8 -12 -4 -34 -15 -28 -15 -31
3 -53 19 -23 18 -23 -7 -50 -30 -32 -31 -40 -5 -40 11 0 20 7 20 15 0 8 7 15
15 15 8 0 15 -6 15 -13 0 -14 -33 -49 -41 -45 -2 2 1 -2 8 -8 20 -17 -3 -30
-64 -39 -29 -4 -53 -11 -53 -15 0 -5 -12 -22 -26 -39 -14 -17 -21 -31 -14 -31
6 0 9 -4 5 -9 -3 -6 5 -9 17 -9 13 1 36 1 52 0 24 -2 27 -4 16 -17 -14 -17
-40 -20 -40 -6 0 6 -12 4 -27 -4 -20 -10 -31 -11 -40 -3 -9 7 -17 7 -28 -2
-11 -9 -15 -9 -15 -1 0 7 -4 9 -10 6 -5 -3 -10 0 -10 8 0 8 -9 17 -20 20 -11
3 -20 9 -19 14 1 4 1 19 0 32 l-1 24 -23 -21 c-27 -26 -37 -28 -37 -8 0 8 8
16 18 18 14 3 13 5 -6 10 -12 3 -20 2 -17 -2 3 -5 0 -12 -6 -16 -12 -7 -10 9
7 51 7 18 6 19 -11 5 -15 -12 -17 -12 -10 -1 6 11 4 13 -9 8 -16 -6 -17 -3
-11 20 3 15 10 30 14 33 5 3 12 16 16 29 5 18 4 22 -6 16 -9 -6 -11 -3 -6 8 7
20 -4 22 -21 5 -9 -9 -12 -8 -12 4 0 16 28 28 68 28 18 0 22 6 22 30 0 24 4
30 21 30 20 0 21 4 15 46 -4 33 -3 45 6 42 6 -2 14 -10 16 -18 3 -8 0 -10 -9
-6 -8 4 -5 1 6 -8 11 -8 26 -20 33 -26 13 -12 15 -9 6 14 -3 9 -10 13 -15 10
-5 -3 -9 4 -9 15 0 10 -5 21 -12 23 -18 6 -1 38 21 38 11 0 23 5 26 10 7 12
45 14 45 2 0 -4 -5 -13 -12 -20 -9 -9 -7 -12 11 -12 12 0 19 -4 16 -10 -4 -6
-11 -8 -16 -5 -5 3 -6 0 -3 -8 3 -8 0 -18 -6 -22 -9 -6 -9 -9 1 -15 10 -7 10
-14 -1 -39 -7 -17 -17 -28 -23 -24 -5 3 -7 1 -3 -5 8 -13 -10 -26 -25 -16 -8
4 -7 9 2 16 11 8 11 9 -1 5 -8 -2 -15 -8 -15 -13 0 -19 -15 -31 -37 -29 -13 1
-15 0 -5 -2 13 -3 16 -11 13 -26 -3 -12 -3 -16 0 -9 3 6 14 12 25 12 11 0 27
9 36 20 20 23 43 26 61 8 9 -9 12 -4 12 24 0 19 7 41 15 48 10 9 15 9 15 1 0
-6 12 -11 28 -10 l27 1 -25 8 -25 8 28 1 c15 1 27 -2 27 -6 -1 -14 -30 -47
-30 -35 0 7 -8 12 -17 12 -17 -1 -17 -1 0 -11 9 -6 15 -14 12 -20 -8 -12 27 2
43 18 17 17 -1 53 -28 53 -12 0 -21 10 -25 30 -4 17 -11 28 -16 24 -5 -3 -9 0
-9 6 0 6 -4 8 -10 5 -5 -3 -10 1 -10 9 0 22 17 20 47 -4 31 -24 61 -26 70 -5
3 9 4 18 2 20 -9 9 -60 17 -57 9 2 -5 -1 -10 -7 -11 -5 -1 -9 5 -7 13 2 12 -4
14 -27 11 -22 -4 -31 -1 -31 9 0 8 3 13 8 12 4 0 15 2 25 7 9 4 26 5 37 2 13
-3 20 0 20 9 0 8 7 14 15 14 8 0 15 -5 15 -11 0 -5 -4 -7 -10 -4 -5 3 -10 4
-10 2 0 -3 16 -15 36 -26 36 -22 54 -20 54 4 0 17 43 32 48 16 7 -22 24 -11
18 13 -6 24 0 36 17 36 5 0 4 -6 -2 -14z m-1315 -142 c-3 -9 -6 -21 -6 -27 -1
-7 -7 -1 -14 12 l-13 24 1 -30 c1 -30 2 -31 28 -17 30 15 46 3 23 -16 -11 -9
-15 -9 -15 -1 0 9 -5 9 -20 1 -11 -6 -26 -8 -32 -4 -7 4 -8 3 -4 -4 4 -7 16
-12 27 -12 11 0 17 -4 14 -10 -3 -5 3 -10 14 -10 22 0 23 -23 1 -43 -10 -10
-11 -9 -5 2 5 9 4 12 -3 7 -7 -4 -12 -3 -12 3 0 5 6 12 13 14 9 4 9 6 0 6 -11
1 -39 -37 -36 -49 1 -3 -14 -15 -33 -28 l-34 -22 0 21 c0 21 0 21 -21 -2 l-20
-24 4 33 c2 23 -1 32 -10 32 -23 0 -10 35 15 38 12 2 22 -1 22 -7 0 -6 7 -11
15 -11 8 0 15 5 15 11 0 5 -4 8 -8 5 -5 -3 -16 3 -24 14 -15 17 -14 19 5 37
23 19 30 23 47 23 6 0 10 8 10 18 0 25 9 32 38 32 18 0 23 -4 18 -16z m314
-179 c-10 -12 -10 -15 4 -15 9 0 16 7 16 15 0 9 9 15 23 14 13 0 16 -3 8 -6
-7 -3 -22 -14 -32 -24 -16 -16 -16 -19 -4 -19 9 0 18 7 21 15 8 21 23 19 20
-2 -2 -10 -15 -24 -31 -32 -15 -7 -23 -16 -18 -20 6 -3 9 -14 7 -23 -1 -10 2
-18 7 -18 6 0 7 -6 2 -12 -15 -26 -12 -47 8 -53 16 -5 18 -10 8 -21 -6 -7 -15
-12 -19 -9 -5 3 -11 1 -15 -5 -13 -22 -25 -8 -25 30 0 41 -10 50 -27 28 -15
-19 -22 -58 -11 -58 5 0 6 -4 3 -10 -3 -5 -2 -10 3 -10 5 0 8 -9 7 -21 -2 -23
-65 -79 -65 -57 -1 7 -7 2 -15 -12 -8 -14 -14 -20 -15 -13 0 6 -9 11 -21 10
-19 -1 -19 -2 -3 -14 9 -7 22 -14 28 -16 7 -3 6 -9 -3 -18 -12 -12 -13 -12 -6
0 5 10 4 12 -4 7 -16 -10 -4 -26 20 -26 25 0 24 -8 -3 -31 -31 -28 -55 -24
-63 10 -4 20 -13 30 -30 33 -14 3 -22 1 -19 -3 3 -5 12 -9 21 -9 13 0 12 -5
-7 -25 -26 -27 -35 -55 -18 -55 6 0 5 -6 -2 -15 -7 -9 -15 -13 -18 -10 -3 3
-11 0 -19 -7 -7 -6 -16 -8 -19 -5 -3 3 -17 2 -30 -3 -26 -10 -25 -12 -28 47
-2 36 -36 83 -36 50 0 -9 5 -17 11 -17 5 0 7 -5 3 -12 -5 -7 -11 -5 -21 8 -14
19 -14 19 -11 -1 2 -11 -3 -20 -9 -21 -7 -1 -19 -2 -25 -3 -9 -1 -8 -4 2 -11
8 -5 11 -10 7 -10 -5 0 -1 -7 8 -16 19 -19 45 -12 45 13 -1 17 -1 17 -11 0
-10 -17 -29 -15 -29 3 0 11 27 20 43 14 22 -8 16 -31 -12 -46 -13 -7 -42 -31
-62 -53 -35 -36 -39 -39 -54 -24 -12 12 -14 26 -9 57 5 34 11 42 28 42 12 0
27 -4 34 -10 9 -7 9 -7 2 2 -5 7 -10 20 -10 30 0 10 5 18 10 18 6 0 10 9 10
21 0 13 -4 18 -12 13 -7 -5 -9 -2 -5 8 9 26 -5 30 -28 8 -19 -18 -23 -19 -28
-6 -4 9 -13 13 -22 10 -16 -7 -20 13 -9 52 6 23 42 44 74 44 10 0 20 5 22 11
6 17 60 -1 65 -22 6 -21 18 -25 29 -7 4 7 3 8 -4 4 -7 -4 -12 -2 -12 5 0 7 9
9 23 5 12 -3 26 -6 30 -6 5 0 5 -5 2 -10 -4 -6 -11 -7 -17 -4 -7 5 -8 2 -3 -5
4 -8 -1 -25 -13 -41 -18 -24 -19 -30 -7 -40 12 -10 15 -9 15 9 0 12 7 24 15
27 8 4 15 11 15 18 0 6 9 17 20 24 11 7 20 17 20 23 0 15 -26 39 -34 32 -3 -4
-6 -2 -6 4 0 5 -18 9 -40 8 -29 -1 -40 2 -40 12 0 9 7 12 18 9 17 -5 67 -9 90
-7 10 1 10 6 2 22 -11 20 -12 20 -25 2 -13 -16 -14 -16 -15 -1 0 17 -23 19
-37 3 -4 -4 -1 -5 7 0 12 6 13 5 3 -6 -10 -10 -16 -10 -24 -2 -13 13 -4 47 10
38 5 -3 13 0 17 6 4 8 3 9 -4 5 -7 -4 -12 -2 -12 3 0 6 14 11 31 11 18 0 28
-4 24 -10 -4 -6 -11 -7 -17 -4 -7 4 -8 2 -4 -4 4 -7 15 -12 24 -12 17 0 59
-57 54 -72 -1 -5 7 -8 17 -8 27 0 52 -11 46 -20 -3 -4 5 -10 16 -13 15 -4 23
0 26 14 3 10 9 16 14 13 5 -3 6 2 3 10 -3 9 -13 16 -20 16 -8 0 -17 7 -21 15
-3 9 -14 15 -24 13 -10 -2 -24 6 -32 16 -11 15 -16 16 -22 6 -6 -9 -4 -11 6
-5 11 6 12 5 2 -6 -10 -9 -16 -10 -24 -2 -8 8 -3 16 21 28 23 12 30 13 25 3
-7 -11 -5 -11 6 0 11 11 11 14 1 21 -8 5 -12 21 -10 37 3 25 8 29 38 32 33 3
34 3 19 -15 -9 -10 -14 -24 -12 -31 3 -6 -1 -10 -9 -9 -7 2 -10 2 -5 0 4 -3 5
-8 2 -13 -3 -5 2 -16 11 -24 8 -9 13 -16 9 -16 -3 0 -1 -9 5 -21 6 -11 19 -19
28 -18 31 3 43 -1 37 -11 -3 -5 -1 -10 4 -10 6 0 11 11 11 25 0 14 -4 25 -10
25 -5 0 -10 -4 -10 -8 0 -12 -39 -12 -46 0 -3 5 -1 15 5 21 15 15 14 30 -2 24
-8 -3 -20 -1 -28 4 -10 6 -10 9 -1 9 6 0 12 7 12 15 0 8 5 15 11 15 6 0 17 7
25 15 9 8 33 15 54 15 30 0 40 5 45 20 3 11 11 20 17 20 7 0 9 16 5 45 -6 37
-4 45 9 45 14 0 14 -3 4 -15z m-604 -91 c-3 -9 -2 -12 5 -9 14 10 61 -4 54
-15 -3 -5 -12 -7 -21 -3 -9 3 -14 0 -12 -7 2 -7 -5 -14 -15 -15 -13 -2 -17 1
-13 11 4 11 2 12 -14 2 -10 -7 -17 -15 -14 -18 9 -9 74 -8 68 1 -10 16 6 9 29
-12 19 -17 23 -18 25 -5 2 9 10 16 19 16 12 0 13 -3 4 -14 -9 -11 -7 -15 9
-19 13 -3 18 -10 14 -21 -3 -9 -11 -13 -18 -9 -6 4 -4 -2 4 -12 14 -18 15 -18
18 3 2 15 10 22 26 22 12 0 26 -3 29 -6 8 -9 -11 -44 -24 -44 -6 0 -7 5 -4 10
9 14 -9 12 -24 -2 -10 -11 -19 -6 -43 22 -23 25 -27 28 -15 8 13 -22 14 -27 2
-31 -7 -3 -16 1 -19 9 -3 8 -11 14 -18 14 -10 0 -10 -2 0 -8 9 -6 6 -14 -13
-32 -21 -19 -25 -21 -25 -7 0 9 7 17 16 17 13 0 14 3 4 15 -7 8 -10 22 -6 30
8 22 -1 19 -44 -15 -20 -16 -39 -28 -41 -27 -2 1 4 -5 14 -13 13 -12 16 -27
14 -62 -3 -37 -1 -45 10 -41 12 5 12 7 1 14 -10 7 -9 9 5 9 21 0 23 -28 2 -36
-19 -8 -20 -24 -1 -24 22 0 13 -67 -12 -93 l-22 -21 0 26 c0 26 -2 26 -30 17
-23 -8 -34 -7 -52 5 -26 18 -42 21 -33 5 9 -13 -31 -52 -44 -44 -5 3 -12 1
-16 -4 -8 -14 5 -62 15 -56 5 3 12 0 16 -6 4 -8 9 -7 15 2 14 23 10 32 -12 26
-15 -4 -19 -3 -12 4 13 13 44 8 45 -6 1 -5 8 -15 17 -21 13 -10 11 -16 -19
-44 -32 -30 -33 -32 -10 -25 39 12 45 11 42 -5 -3 -12 -1 -13 9 -2 17 16 29
15 29 -1 0 -20 -47 -61 -54 -48 -4 5 -14 7 -24 4 -13 -4 -11 0 6 16 26 26 27
31 7 31 -8 0 -14 -3 -14 -7 3 -20 -2 -26 -11 -13 -8 11 -9 6 -5 -18 4 -24 2
-32 -6 -26 -8 4 -9 3 -5 -4 4 -7 16 -12 28 -12 17 0 18 -2 8 -15 -16 -19 -30
-19 -30 1 0 8 -5 12 -11 8 -8 -4 -9 3 -5 23 5 21 2 34 -9 43 -8 7 -15 27 -15
45 0 21 -5 32 -15 32 -8 0 -12 -4 -10 -8 3 -3 -3 -13 -11 -20 -15 -12 -16 -10
-10 21 12 57 17 70 27 70 5 0 9 9 9 21 0 25 20 46 53 54 18 5 26 15 31 38 3
18 9 46 12 62 l7 30 -22 -25 -22 -25 13 25 c7 14 16 27 19 30 3 3 8 13 12 23
4 10 17 17 34 17 25 0 25 -1 8 -13 -17 -13 -17 -14 4 -20 11 -3 18 -1 15 4 -3
5 2 12 10 15 14 5 14 8 1 21 -17 17 -11 33 11 33 14 0 14 2 0 16 -9 8 -21 12
-27 8 -14 -8 19 50 42 74 8 9 18 25 22 35 3 9 9 17 13 17 3 0 3 -7 0 -16z
m3044 -74 c-13 -8 -13 -10 1 -10 9 0 24 -11 33 -25 15 -23 15 -24 -1 -18 -10
3 -15 3 -11 -2 4 -4 2 -15 -4 -24 -10 -13 -10 -14 2 -3 8 6 21 12 30 12 13 -1
13 -2 -2 -14 -16 -12 -15 -14 4 -30 18 -16 20 -16 15 -2 -4 10 -1 16 8 16 20
0 19 15 -2 51 -9 15 -14 31 -10 35 10 11 47 -39 43 -58 -2 -11 1 -15 10 -11 9
3 14 -2 15 -13 0 -18 1 -17 9 1 7 17 9 17 9 3 1 -25 -3 -33 -13 -30 -5 2 -4
-4 3 -12 7 -8 22 -16 34 -18 15 -2 23 -11 24 -28 3 -25 3 -25 -7 -2 -11 26
-25 28 -38 7 -5 -9 -27 -17 -53 -20 -34 -3 -39 -2 -22 5 13 5 20 15 17 23 -3
8 2 20 11 27 17 14 20 40 5 40 -13 0 -28 -31 -25 -56 1 -12 -4 -21 -12 -21 -8
0 -12 6 -9 13 6 16 -39 58 -53 49 -6 -3 -9 -10 -6 -15 8 -14 -6 -40 -19 -33
-6 4 -5 0 2 -9 11 -14 10 -18 -7 -28 -12 -6 -21 -7 -21 -1 0 5 6 12 13 14 6 3
2 6 -10 6 -16 1 -23 7 -23 22 0 12 -4 17 -11 14 -6 -4 -5 2 3 14 13 22 38 29
38 11 0 -5 -6 -10 -14 -10 -9 0 -12 -7 -9 -20 3 -11 10 -20 15 -20 6 0 7 7 4
16 -4 11 -2 15 7 11 10 -4 13 7 11 49 -2 29 -5 58 -8 63 -10 15 5 41 23 41 14
0 14 -2 1 -10z m-232 -12 c-2 -7 3 -12 11 -10 12 3 12 0 1 -12 -11 -14 -9 -16
9 -16 11 0 21 5 21 11 0 5 5 7 11 3 8 -4 7 -9 -2 -15 -13 -8 -6 -11 18 -8 8 1
23 -26 28 -51 3 -13 -1 -17 -11 -13 -8 3 -14 -1 -14 -11 0 -20 14 -21 33 -1 8
8 17 11 21 8 11 -11 6 -23 -10 -23 -8 0 -12 -4 -9 -10 7 -11 -6 -13 -29 -4
-11 4 -16 19 -16 43 0 51 -8 55 -37 20 -14 -16 -29 -27 -34 -23 -5 3 -12 -2
-15 -11 -4 -11 -13 -14 -28 -9 -21 7 -21 6 -2 -15 19 -21 43 -30 31 -11 -8 13
8 13 21 0 7 -7 11 -6 11 4 0 8 -4 13 -8 10 -4 -2 -10 0 -14 6 -4 6 5 10 19 10
20 0 24 -4 19 -17 -4 -11 -3 -14 5 -9 17 11 15 -5 -5 -26 -15 -17 -15 -18 0
-18 10 0 17 4 17 9 0 18 53 23 69 7 9 -10 11 -16 4 -16 -7 0 -15 5 -18 10 -5
8 -11 8 -19 1 -7 -6 -16 -8 -20 -4 -4 4 -4 -1 0 -10 8 -21 63 -20 80 2 15 19
34 5 34 -24 0 -17 -4 -23 -14 -19 -11 4 -13 0 -9 -15 3 -12 1 -21 -6 -21 -6 0
-14 0 -18 0 -4 0 -8 7 -9 15 -2 14 0 14 14 3 16 -12 16 -11 0 12 -9 14 -22 23
-30 21 -7 -2 -18 -4 -24 -5 -7 -1 -19 -8 -28 -15 -11 -9 -16 -10 -16 -2 0 6 6
11 13 12 9 0 9 2 -1 6 -6 2 -9 10 -5 16 4 7 -1 6 -10 -2 -15 -12 -17 -11 -17
4 0 17 -1 17 -18 2 -25 -23 -35 -21 -29 4 4 16 -1 28 -19 41 -29 23 -31 48 -5
48 11 0 23 5 26 11 4 6 13 8 21 5 20 -8 27 15 14 48 -6 17 -14 24 -22 20 -8
-5 -9 -2 -5 10 4 10 7 22 7 27 0 5 5 9 10 9 6 0 9 -6 8 -12z m-994 -53 c3 -9
-2 -20 -13 -27 -17 -11 -17 -12 3 -35 12 -14 21 -30 22 -36 1 -19 -28 -47 -48
-47 -13 0 -18 6 -16 18 2 11 11 16 26 14 12 -2 22 1 22 7 0 6 -6 8 -14 5 -14
-5 -41 16 -49 38 -5 16 -47 -18 -47 -37 0 -7 -9 -23 -20 -36 l-19 -24 -1 27
c0 22 -4 26 -25 24 -13 -2 -31 -9 -40 -16 -12 -10 -15 -10 -15 4 0 9 6 16 14
16 17 0 25 18 18 43 -4 17 -6 16 -28 -4 -13 -12 -27 -19 -31 -16 -3 4 -17 0
-29 -8 -20 -13 -23 -13 -26 3 -3 14 -6 14 -16 -5 -11 -21 -11 -23 9 -23 18 0
19 -3 9 -15 -13 -15 -31 -16 -42 -1 -4 6 -13 4 -22 -3 -13 -11 -16 -11 -16 2
0 8 5 17 12 19 8 3 7 6 -3 10 -9 3 -16 1 -17 -5 -6 -41 -9 -54 -16 -65 -9 -15
-26 -6 -26 13 0 7 6 20 13 27 7 7 16 21 20 30 7 20 72 40 104 32 14 -4 23 -2
23 5 0 6 13 11 29 11 23 0 28 4 25 18 -7 30 9 42 49 35 20 -3 34 -9 31 -14 -3
-5 4 -9 16 -9 12 0 18 -5 15 -10 -4 -6 -11 -7 -17 -4 -7 4 -8 2 -4 -4 13 -21
36 -13 36 12 0 16 7 26 23 30 31 8 39 7 32 -3 -3 -5 -1 -13 5 -16 6 -4 10 -3
9 2 -6 33 23 48 35 18z m-909 -225 c-4 -6 -10 -8 -14 -6 -4 3 -8 -2 -8 -10 0
-11 7 -13 31 -8 27 6 29 5 18 -9 -15 -17 -51 -14 -64 5 -6 10 -8 10 -8 0 0 -7
-5 -10 -12 -6 -7 4 -8 3 -4 -4 4 -7 16 -12 27 -12 11 0 17 -4 14 -10 -3 -5 0
-10 9 -10 8 0 16 -4 18 -9 4 -13 116 -15 153 -3 18 6 23 11 12 11 -10 1 -26
-3 -35 -8 -14 -7 -17 -4 -19 20 -1 16 1 29 5 29 21 -1 51 -13 47 -20 -3 -4 4
-10 15 -13 13 -3 20 0 20 9 0 8 8 14 17 14 13 0 11 -6 -11 -29 -17 -18 -34
-27 -46 -24 -10 3 -21 0 -24 -6 -8 -12 67 -17 164 -12 l54 3 -18 -21 c-19 -21
-19 -21 0 -23 10 0 27 0 38 1 22 2 48 -17 40 -30 -3 -5 9 -6 26 -3 28 6 30 5
29 -22 -1 -24 -3 -25 -6 -6 -2 12 -8 22 -13 22 -4 0 -6 -10 -3 -22 5 -23 5
-23 -10 -3 -9 11 -17 15 -17 8 0 -6 5 -15 10 -18 16 -10 -10 -37 -27 -31 -8 3
-11 1 -8 -4 3 -6 1 -10 -4 -10 -6 0 -11 8 -11 18 0 11 -8 18 -22 19 -20 2 -21
1 -5 -8 9 -6 17 -17 17 -24 0 -8 5 -15 11 -15 16 0 53 21 61 35 4 7 19 10 33
7 28 -5 34 -32 10 -52 -8 -7 -15 -9 -15 -5 0 4 -8 1 -17 -6 -15 -13 -16 -11
-10 11 6 24 6 24 -9 5 -9 -11 -20 -19 -25 -17 -6 1 -8 -2 -5 -7 4 -5 -2 -11
-11 -13 -11 -3 -5 -6 14 -9 18 -3 30 -2 27 3 -3 4 2 8 11 8 9 0 13 -5 10 -10
-4 -6 -2 -16 3 -23 15 -19 22 -86 10 -93 -6 -4 -8 -2 -4 4 3 6 2 13 -2 16 -5
3 -8 -15 -8 -39 1 -34 -5 -50 -21 -67 -15 -15 -23 -18 -23 -9 0 11 -3 11 -17
-1 -10 -8 -38 -22 -63 -30 -62 -22 -163 -52 -175 -54 -15 -2 -46 -13 -81 -30
-17 -9 -40 -15 -50 -13 -11 1 -27 -1 -37 -6 -10 -4 -21 -5 -24 -1 -3 3 -12 1
-20 -5 -10 -9 -13 -8 -13 1 0 10 -3 10 -16 0 -13 -11 -16 -10 -21 9 l-6 22
-23 -22 c-14 -13 -24 -17 -24 -10 0 22 29 43 50 36 11 -3 20 -2 20 3 0 6 11
13 25 16 21 5 25 12 25 43 0 35 -1 35 -19 19 -18 -16 -19 -16 -23 9 -3 14 -1
25 3 25 5 0 9 -8 10 -17 0 -11 3 -13 6 -5 6 14 33 16 33 2 0 -5 5 -10 12 -10
9 0 9 3 0 12 -15 15 -16 31 0 22 6 -4 8 -3 4 4 -3 6 -1 12 6 15 7 2 5 3 -4 2
-10 -2 -18 1 -18 6 0 5 10 9 22 9 17 0 19 3 10 12 -9 9 -16 7 -32 -7 -18 -16
-20 -16 -20 -2 0 10 7 17 16 17 19 0 15 31 -5 38 -8 3 -11 0 -7 -6 3 -6 2 -13
-4 -17 -6 -3 -13 1 -16 9 -3 9 -10 13 -15 11 -11 -7 -23 40 -15 60 3 8 1 15
-5 15 -14 0 -28 -42 -19 -59 4 -8 5 -23 3 -35 -4 -15 -2 -17 5 -7 14 19 49 5
47 -19 -2 -26 -10 -33 -40 -35 -23 -1 -25 3 -25 47 0 41 -2 46 -20 43 -13 -2
-20 2 -20 11 0 8 8 14 19 14 15 0 20 12 29 64 6 36 8 74 5 85 -4 15 -1 21 12
21 14 0 15 -3 6 -14 -9 -11 -9 -16 0 -22 8 -4 9 -3 5 4 -4 7 0 12 10 12 16 0
16 -1 -1 -20 -11 -13 -14 -20 -6 -20 7 0 24 -13 38 -30 13 -16 31 -30 39 -30
9 0 13 -4 10 -9 -3 -5 -16 -7 -29 -5 -21 4 -21 4 2 -6 18 -8 28 -7 41 5 33 30
67 10 54 -32 -3 -10 2 -7 10 7 l16 25 -6 -31 c-4 -19 -1 -34 5 -39 9 -5 9 -10
0 -21 -6 -7 -15 -12 -19 -9 -5 3 -11 1 -15 -5 -3 -5 -2 -10 4 -10 5 0 16 -3
25 -6 10 -4 16 -1 16 10 0 12 7 14 33 10 23 -4 28 -3 17 4 -8 6 -18 8 -22 6
-4 -3 -8 6 -8 20 0 17 5 26 16 26 13 0 14 -3 5 -13 -8 -11 -5 -16 14 -25 14
-6 25 -16 25 -22 0 -5 5 -10 11 -10 8 0 7 5 -2 16 -10 13 -10 17 1 24 8 5 18
6 22 4 4 -3 5 2 2 10 -4 10 -1 16 9 16 10 0 14 -7 11 -22 -2 -13 -2 -17 2 -10
3 6 12 12 20 12 9 0 12 -4 9 -10 -3 -5 -1 -10 4 -10 6 0 11 11 11 25 0 14 5
25 10 25 6 0 5 8 -2 20 -16 26 -20 25 -71 -7 -48 -30 -49 -31 -58 -6 -12 30
-10 43 7 43 13 0 14 -3 5 -13 -11 -14 -5 -27 13 -27 6 0 4 5 -4 11 -12 9 -11
10 7 6 13 -3 24 1 27 10 4 9 13 13 22 9 8 -3 12 -2 9 4 -3 6 -13 10 -21 10
-18 0 -18 25 1 44 21 20 20 22 -20 20 -23 -1 -35 3 -35 11 0 19 -24 25 -57 15
-29 -9 -17 -13 27 -11 l25 2 -24 -21 -23 -20 22 0 c22 0 22 -1 6 -19 -10 -11
-15 -24 -12 -29 8 -13 -20 -35 -34 -27 -6 3 -7 12 -3 18 4 7 0 6 -10 -2 -15
-12 -17 -11 -17 7 0 17 -5 20 -25 16 -29 -5 -33 11 -8 38 20 23 32 23 50 1 8
-10 12 -12 8 -5 -3 6 -1 12 6 12 7 0 9 3 5 8 -4 4 -13 7 -19 7 -7 0 -12 10
-12 22 0 12 -5 26 -9 30 -5 4 -6 3 -2 -4 9 -16 -39 -66 -57 -60 -18 6 -21 37
-3 37 9 0 16 5 16 10 0 14 -23 13 -38 -2 -10 -10 -16 -7 -28 11 -9 12 -22 20
-30 17 -19 -7 -18 18 1 34 8 7 15 17 15 22 0 13 -42 26 -60 19 -9 -3 -2 -8 20
-12 l35 -6 -36 -2 c-20 0 -42 -8 -49 -16 -10 -12 -10 -15 0 -15 10 0 10 -3 0
-15 -7 -8 -19 -15 -26 -15 -8 0 -14 -5 -14 -11 0 -7 -10 -5 -26 6 -25 16 -25
16 -14 -5 6 -11 16 -18 23 -14 7 3 1 -4 -13 -15 -21 -17 -22 -21 -7 -21 10 0
15 -4 12 -10 -3 -5 1 -10 10 -10 9 0 14 -4 11 -9 -4 -5 -1 -11 6 -13 8 -3 1
-18 -20 -44 -18 -21 -28 -40 -23 -42 5 -2 7 -12 4 -22 -4 -16 0 -20 17 -20 19
0 20 -2 10 -15 -13 -15 -35 -16 -60 0 -13 8 -13 7 -1 -8 7 -9 18 -17 23 -17
14 0 38 -27 31 -34 -4 -3 -1 -6 6 -6 7 0 15 9 18 20 3 11 14 20 25 20 10 0 16
-5 13 -10 -4 -6 -11 -8 -16 -5 -5 3 -6 0 -3 -8 5 -15 -10 -30 -34 -33 -7 -2
-18 8 -24 22 -6 13 -17 24 -25 24 -7 0 -16 7 -19 15 -4 8 -11 15 -16 15 -6 0
-6 -6 1 -14 9 -10 9 -16 1 -21 -6 -4 -9 -12 -7 -18 2 -7 -2 -20 -11 -29 -14
-16 -13 -18 1 -18 29 0 47 12 47 31 0 12 -5 16 -15 13 -8 -4 -15 -1 -15 6 0 6
10 10 23 8 13 -2 21 -9 20 -18 -2 -10 14 -21 48 -34 45 -15 50 -20 37 -32 -11
-12 -21 -12 -42 -4 -39 15 -76 13 -76 -4 0 -8 -12 -24 -27 -36 l-27 -21 -16
21 c-12 16 -18 18 -28 8 -9 -9 -12 -8 -12 5 0 9 6 17 14 17 19 0 23 17 16 65
l-5 39 -18 -27 c-21 -32 -37 -35 -37 -5 0 20 -1 21 -20 3 -24 -22 -25 -21 -34
28 -6 30 -4 37 9 37 8 0 15 5 15 10 0 6 -4 10 -10 10 -5 0 -10 7 -10 15 0 8 5
15 11 15 5 0 8 -4 5 -8 -2 -4 4 -13 15 -20 23 -14 25 -7 4 14 -19 19 -19 34 0
34 9 0 12 -6 9 -15 -4 -8 -1 -15 5 -15 6 0 11 -7 11 -15 0 -8 9 -15 19 -15 11
0 22 -4 26 -10 3 -5 11 -7 18 -5 7 2 24 6 40 9 15 4 27 13 27 21 0 8 4 15 10
15 5 0 7 -7 4 -15 -4 -8 -1 -15 5 -15 15 0 14 20 -4 54 -9 16 -14 35 -11 42 7
19 -16 23 -41 6 -20 -12 -23 -12 -29 1 -6 17 -39 16 -39 -1 0 -6 -6 -17 -12
-23 -10 -10 -13 -8 -13 14 0 15 5 27 10 27 6 0 10 9 10 20 0 13 9 22 25 26 24
6 36 24 16 24 -22 0 -43 -14 -51 -35 -5 -13 -35 -37 -69 -56 -33 -18 -58 -35
-55 -38 2 -3 -9 -10 -26 -17 -33 -14 -38 -35 -14 -55 15 -12 16 -11 9 11 -7
24 -7 24 12 8 11 -10 25 -18 31 -18 17 0 15 -15 -3 -30 -13 -10 -15 -9 -15 11
0 22 -1 22 -17 7 -13 -13 -19 -14 -27 -5 -6 7 -10 10 -9 8 2 -2 -2 -10 -8 -18
-9 -10 -8 -13 5 -13 10 0 14 -4 11 -10 -3 -5 -1 -10 5 -10 6 0 8 -5 5 -10 -4
-6 -11 -7 -17 -4 -7 4 -8 2 -4 -4 4 -7 2 -12 -3 -12 -6 0 -11 11 -11 25 0 31
-11 32 -29 3 -12 -20 -14 -20 -23 -4 -15 26 9 66 39 66 17 0 23 6 23 22 0 12
-3 18 -7 14 -4 -3 -13 4 -21 16 -7 13 -11 15 -8 6 3 -10 0 -20 -5 -24 -7 -4
-10 6 -8 27 2 23 -1 33 -9 31 -7 -1 -12 5 -12 14 0 8 5 12 11 8 8 -5 8 -1 0
14 -6 11 -11 28 -11 37 0 24 44 15 48 -10 3 -20 3 -20 -12 -1 -9 11 -19 17
-22 13 -8 -8 21 -37 36 -37 7 0 10 12 8 27 -2 22 2 28 22 33 14 4 24 12 22 18
-1 7 5 12 14 12 8 0 12 -4 9 -10 -3 -5 -1 -10 4 -10 6 0 11 5 11 10 0 6 8 10
17 10 15 0 15 -2 3 -14 -8 -8 -31 -23 -50 -33 -19 -11 -35 -25 -35 -31 0 -6
-5 -16 -12 -23 -10 -10 -8 -16 9 -31 25 -22 48 -23 48 -3 0 8 6 12 14 9 8 -3
17 -1 21 5 4 7 0 8 -10 5 -11 -5 -18 0 -22 15 -4 17 -8 19 -19 10 -11 -9 -14
-8 -14 4 0 10 12 18 34 23 41 7 57 0 49 -24 -8 -22 1 -13 17 17 10 19 9 22 -1
16 -9 -6 -11 0 -5 25 8 41 7 40 42 43 19 1 28 -2 26 -10 -3 -18 15 -16 21 1 3
8 3 24 0 35 -6 22 -1 24 35 15 14 -4 21 -12 18 -20 -3 -9 2 -14 14 -14 15 0
20 7 20 30 0 25 4 30 34 36 19 3 39 3 45 0 14 -9 61 4 61 16 0 5 -5 6 -10 3
-6 -3 -23 8 -38 25 -28 30 -43 31 -41 1 0 -12 3 -11 9 4 7 15 9 16 9 4 1 -9
-6 -22 -14 -29 -12 -10 -15 -9 -15 5 0 14 -3 15 -15 5 -12 -10 -15 -10 -15 4
0 9 6 16 14 16 8 0 16 5 18 12 5 13 48 20 121 19 34 0 47 4 47 14 0 8 -5 17
-12 21 -7 4 -8 3 -4 -4 4 -7 2 -12 -3 -12 -6 0 -11 7 -11 15 0 8 7 15 15 15 8
0 15 6 15 14 0 17 15 24 53 25 17 1 26 -3 22 -9z m-920 -220 c7 -11 16 -47 17
-67 1 -7 14 -17 30 -24 16 -6 28 -19 28 -29 0 -22 -66 -74 -83 -64 -6 4 -9 3
-4 -1 4 -5 -1 -17 -10 -28 -10 -10 -18 -26 -18 -34 0 -20 -66 -74 -93 -76 -12
0 -19 -3 -17 -6 3 -2 -2 -15 -10 -28 -13 -20 -13 -23 -1 -23 8 0 18 9 21 20
12 39 30 22 30 -29 -1 -52 -18 -83 -41 -74 -8 3 -14 -1 -14 -9 0 -8 -9 -23
-19 -32 -11 -10 -18 -23 -15 -30 3 -7 -4 -24 -15 -37 -19 -22 -20 -23 -21 -4
0 11 4 26 9 34 5 7 6 22 4 32 -4 16 -9 17 -26 7 -20 -10 -20 -12 -3 -18 17 -6
17 -8 -7 -36 -18 -20 -26 -24 -27 -13 0 8 5 20 10 25 15 15 3 39 -26 55 -17 9
-24 19 -21 31 3 10 1 16 -4 12 -14 -9 -10 -32 7 -42 15 -8 15 -10 0 -15 -9 -4
-16 -2 -16 4 0 6 -4 8 -10 4 -5 -3 -7 -12 -4 -20 5 -12 9 -12 28 0 13 8 26 12
29 9 8 -8 -2 -54 -16 -71 -7 -9 -5 -13 7 -13 20 0 21 -14 2 -29 -11 -9 -15 -5
-20 24 -4 20 -4 46 0 58 6 20 5 21 -11 7 -14 -12 -19 -12 -22 -2 -3 6 -9 10
-14 6 -5 -3 -9 1 -9 9 0 8 7 17 15 21 20 7 19 33 -2 45 -17 10 -16 10 2 11 11
0 31 3 44 7 17 4 22 3 17 -5 -5 -8 2 -12 19 -12 15 0 24 -4 20 -10 -3 -5 -3
-10 2 -10 4 0 13 11 19 25 10 20 9 27 -7 41 -20 18 -26 54 -8 54 5 0 7 -6 4
-12 -4 -7 0 -5 8 5 8 9 20 17 27 17 10 0 9 -4 -1 -17 -8 -9 -14 -19 -14 -22 0
-3 -4 -5 -10 -3 -5 2 6 -13 25 -32 19 -19 39 -36 43 -36 16 0 46 45 47 70 0
18 -3 21 -9 11 -5 -8 -6 -21 -3 -30 5 -14 4 -14 -14 -1 -17 14 -18 14 -6 -1
10 -14 10 -18 -1 -22 -26 -10 -40 9 -32 42 4 17 11 31 16 31 5 0 9 5 9 11 0 5
-4 8 -9 4 -17 -10 -22 14 -11 54 6 22 16 44 24 48 7 4 15 16 19 26 3 9 12 17
19 17 9 0 8 -3 -2 -10 -13 -8 -12 -10 3 -10 9 0 17 5 17 11 0 5 5 7 11 3 6 -3
9 -15 6 -25 -3 -10 -1 -22 4 -25 5 -3 9 11 9 30 0 29 -3 34 -20 31 -18 -3 -25
6 -21 28 1 5 -3 6 -9 2 -5 -3 -10 -1 -10 4 0 6 -5 11 -12 11 -6 0 -3 -9 7 -20
19 -21 7 -28 -13 -8 -20 20 -14 38 14 38 21 0 24 4 19 20 -4 12 -2 20 5 20 6
0 8 5 4 11 -3 6 2 28 12 50 17 35 23 39 56 39 20 0 40 -4 43 -10z m3267 -405
c-2 -15 0 -25 7 -25 7 0 9 -4 6 -10 -3 -5 -1 -10 5 -10 6 0 8 -4 5 -10 -3 -5
-1 -10 6 -10 8 0 9 -3 0 -13 -6 -8 -8 -17 -4 -20 11 -12 23 -8 23 7 0 8 7 17
16 20 14 5 15 4 4 -9 -9 -11 -9 -15 -1 -15 7 0 9 -5 4 -12 -11 -19 -12 -38 -2
-38 5 0 9 4 9 9 0 5 9 7 20 4 11 -3 20 -9 20 -14 0 -5 -7 -5 -17 -2 -10 4 -14
2 -9 -5 3 -6 2 -13 -4 -17 -5 -3 -10 -1 -10 4 0 6 -4 11 -8 11 -20 0 -6 -26
15 -28 13 -1 23 3 23 8 0 6 5 10 11 10 5 0 7 -6 3 -12 -4 -8 -3 -9 2 -5 5 5 9
16 9 24 0 9 7 19 15 21 12 4 13 3 2 -10 -10 -13 -9 -16 10 -21 l22 -6 -24 -26
c-22 -24 -25 -24 -31 -8 -7 16 -8 16 -9 -2 l-1 -20 -9 20 c-5 11 -9 16 -10 10
-1 -5 -3 -17 -5 -26 -2 -14 3 -15 32 -9 28 7 32 6 22 -6 -8 -10 -8 -14 0 -14
6 0 11 -6 11 -12 0 -7 6 -25 14 -40 10 -19 11 -29 3 -37 -8 -8 -8 -11 1 -11 7
0 12 -6 12 -14 0 -8 5 -16 12 -18 9 -3 9 -6 0 -12 -8 -4 -16 1 -22 16 -9 20
-10 19 -6 -9 3 -18 1 -33 -4 -33 -6 0 -10 18 -10 40 0 39 -6 45 -39 40 -12 -1
-12 1 -3 13 6 7 9 17 5 20 -3 4 -1 7 5 7 7 0 12 -7 12 -15 0 -8 7 -15 14 -15
12 0 13 6 4 31 -10 28 -11 29 -29 13 -10 -9 -16 -21 -12 -27 4 -6 0 -8 -10 -4
-10 4 -16 2 -14 -5 1 -6 -4 -12 -11 -14 -7 -1 -8 0 -3 2 6 3 7 12 4 20 -3 7
-9 11 -14 8 -5 -3 -9 2 -9 11 0 9 5 13 10 10 6 -4 9 -1 8 6 -2 6 3 14 10 16 8
3 10 -1 5 -13 -5 -14 -3 -16 11 -11 10 4 20 7 22 7 2 0 4 7 4 15 0 9 -6 15
-12 14 -26 -3 -37 2 -41 19 -4 13 -5 13 -6 -4 0 -12 -11 -29 -23 -38 -13 -9
-17 -14 -9 -10 11 5 13 2 9 -14 -4 -12 -2 -22 3 -22 5 0 9 -4 9 -9 0 -6 -9 -9
-20 -8 -14 1 -20 8 -20 25 0 17 -4 23 -15 18 -21 -8 -20 30 1 42 10 6 14 14 9
22 -6 9 -9 9 -16 -1 -7 -11 -9 -10 -9 4 0 11 8 17 21 17 11 0 17 -4 14 -10 -9
-15 1 -12 37 11 l33 20 -37 -5 c-22 -4 -38 -2 -38 4 0 6 7 10 15 10 9 0 15 9
15 23 -1 19 -2 20 -11 5 -5 -9 -16 -15 -23 -12 -8 3 -16 -2 -19 -13 -2 -10 -4
-3 -4 15 0 17 4 32 9 32 5 0 6 -4 3 -10 -3 -5 -1 -10 5 -10 14 0 7 71 -11 116
-7 17 -9 38 -6 48 10 24 15 19 9 -9z m-324 -39 c-8 -6 -17 -19 -21 -29 -3 -9
-10 -17 -14 -16 -21 4 -25 -2 -10 -13 10 -7 19 -28 21 -45 5 -35 -4 -42 -23
-19 -9 11 -9 15 0 18 7 2 10 11 6 21 -9 25 -26 21 -19 -5 3 -14 2 -19 -6 -14
-7 4 -12 3 -12 -2 0 -6 7 -12 15 -16 8 -3 15 -10 15 -16 0 -6 -11 -3 -25 6
-14 9 -28 14 -32 10 -3 -3 -2 -6 4 -6 6 0 9 -10 6 -22 -5 -23 -5 -23 11 -3
l16 20 -6 -20 c-3 -11 -2 -16 3 -10 4 6 17 12 28 14 20 3 20 3 1 -18 -10 -11
-22 -18 -26 -16 -4 3 -10 -2 -14 -10 -3 -8 0 -15 6 -15 7 0 7 -4 -1 -14 -8
-10 -9 -16 -1 -21 5 -3 10 1 10 9 0 9 4 16 10 16 5 0 7 7 3 16 -4 12 -2 15 8
12 8 -3 13 -10 12 -16 -2 -7 4 -9 14 -5 10 4 14 2 10 -4 -4 -6 4 -14 18 -17
27 -7 46 5 58 37 4 11 17 17 37 17 19 0 29 -4 25 -10 -4 -6 -15 -8 -25 -5 -10
3 -20 0 -23 -9 -4 -11 3 -14 34 -12 32 1 38 4 33 19 -4 13 0 17 17 17 17 0 19
-3 10 -14 -6 -7 -9 -21 -5 -30 4 -10 1 -16 -9 -16 -20 0 -27 -20 -15 -44 7
-12 7 -16 0 -12 -5 3 -13 -6 -16 -20 -4 -14 -12 -23 -19 -21 -7 2 -20 -2 -29
-11 -14 -12 -18 -12 -18 -2 0 9 -9 5 -24 -9 l-25 -23 6 22 c4 15 2 21 -5 17
-21 -14 -5 -42 26 -48 18 -4 32 -3 32 2 0 5 8 9 18 8 10 0 12 -3 5 -6 -7 -2
-13 -12 -13 -21 1 -15 2 -15 11 1 6 9 14 15 19 12 4 -3 6 3 4 12 -3 10 7 32
20 48 l25 30 1 -28 c0 -15 -6 -30 -13 -33 -7 -2 -13 -13 -14 -24 -2 -22 13
-27 19 -8 3 7 24 14 48 15 27 1 39 -2 30 -7 -7 -4 -19 -6 -26 -3 -6 2 -15 -1
-19 -7 -4 -7 -1 -10 6 -9 22 5 69 -10 69 -21 0 -13 -6 -13 -29 2 -15 9 -23 9
-34 0 -16 -14 -11 -62 7 -62 6 0 4 -5 -4 -10 -12 -8 -11 -10 7 -10 12 0 25 5
28 10 3 6 11 10 17 10 6 0 1 -8 -10 -19 -12 -10 -32 -18 -43 -17 -26 1 -51 36
-31 43 14 5 16 29 3 38 -5 3 -17 -2 -25 -11 -12 -11 -16 -12 -16 -2 0 10 -3 9
-10 -2 -5 -8 -12 -11 -16 -7 -13 12 12 29 45 31 17 0 31 4 31 7 0 13 -62 16
-74 4 -7 -9 -18 -10 -35 -3 -28 10 -57 -10 -48 -34 3 -8 8 -4 15 12 9 22 11
22 12 5 0 -11 4 -16 8 -10 14 20 35 17 29 -5 -4 -14 0 -20 11 -20 15 -1 15 -2
0 -11 -10 -5 -18 -17 -18 -25 0 -8 -4 -13 -9 -10 -5 3 -11 -4 -14 -15 -3 -12
-10 -18 -16 -14 -6 3 -11 1 -11 -4 0 -6 5 -11 11 -11 6 0 4 -7 -5 -15 -17 -17
-30 -20 -21 -5 3 6 4 10 1 10 -14 0 -14 -20 0 -34 14 -15 14 -16 -1 -16 -8 0
-20 11 -25 25 -5 14 -17 25 -27 24 -16 0 -16 -2 2 -10 18 -8 17 -9 -5 -6 -20
3 -26 -1 -26 -16 0 -14 6 -17 23 -14 27 5 28 -3 8 -43 -16 -31 -29 -37 -40
-20 -9 15 -25 2 -25 -21 0 -12 -5 -17 -10 -14 -14 8 -77 -39 -77 -57 0 -8 11
-14 26 -15 15 0 18 1 9 4 -28 7 -21 21 7 15 20 -3 25 0 25 17 0 15 5 21 18 19
11 -2 17 3 16 14 -1 14 2 16 17 7 11 -5 17 -14 14 -20 -4 -5 -1 -9 5 -9 8 0 8
-6 0 -20 -9 -16 -8 -22 5 -26 8 -3 12 -11 9 -16 -4 -7 -9 -6 -13 1 -5 7 -15 3
-30 -13 -25 -26 -13 -46 12 -21 19 18 31 20 20 3 -12 -21 -14 -48 -2 -48 5 0
7 5 4 10 -3 6 -1 10 5 10 6 0 9 4 5 9 -3 6 4 15 15 21 11 6 18 16 14 21 -4 7
3 6 16 -1 17 -9 21 -9 15 0 -5 9 -1 10 15 5 20 -7 22 -5 18 20 -7 36 40 83 56
56 3 -5 19 -7 35 -6 24 2 28 -1 23 -19 -3 -11 -7 -15 -10 -8 -2 7 -13 10 -28
6 -18 -5 -24 -2 -24 10 0 8 -6 13 -13 10 -15 -5 -20 -41 -6 -49 5 -3 6 1 3 9
-7 17 4 20 24 7 17 -11 -11 -36 -32 -28 -15 6 -30 -19 -20 -34 3 -5 13 -9 22
-10 11 0 12 -2 4 -6 -6 -2 -10 -9 -7 -13 3 -5 -3 -18 -14 -29 -10 -10 -22 -28
-25 -38 -3 -10 -16 -19 -27 -20 -12 -1 -28 -11 -36 -22 -20 -30 -37 -26 -18 3
15 23 15 25 -2 30 -10 3 -7 4 7 2 25 -2 26 -1 16 31 l-11 33 -17 -22 c-10 -13
-18 -28 -18 -35 0 -6 -4 -14 -9 -17 -15 -10 -7 28 9 41 12 9 9 10 -13 6 -15
-3 -24 -9 -22 -13 3 -5 1 -11 -5 -15 -5 -3 -10 -11 -10 -17 0 -6 6 -5 16 2 12
11 15 11 12 -1 -2 -9 4 -13 20 -11 12 2 22 -2 22 -8 0 -6 -4 -9 -9 -5 -5 3
-12 1 -15 -4 -3 -5 -16 -7 -29 -5 -20 4 -21 4 -2 -5 18 -9 18 -10 -6 -10 -24
-1 -49 -17 -49 -32 0 -4 12 -10 26 -13 22 -6 24 -9 13 -22 -7 -8 -18 -13 -25
-10 -7 3 -18 -2 -24 -10 -11 -12 -8 -13 17 -8 21 4 32 2 36 -9 4 -10 15 -13
34 -10 l28 5 -32 -31 c-18 -17 -37 -31 -43 -31 -7 0 -9 -8 -5 -20 3 -11 2 -20
-3 -20 -5 0 -12 -11 -14 -25 -3 -14 -1 -25 3 -25 5 0 9 5 9 10 0 6 10 10 23
10 21 -1 21 -1 3 -15 -11 -8 -17 -17 -14 -20 3 -3 17 4 32 16 21 17 25 24 14
30 -13 8 -11 10 15 13 6 1 11 7 10 13 -1 6 7 13 17 16 11 3 20 1 20 -5 0 -6 9
-8 20 -5 11 3 18 1 14 -4 -3 -5 0 -9 5 -9 17 0 13 18 -6 28 -10 5 -26 8 -35 7
-24 -4 -23 -1 14 53 42 61 50 70 67 64 10 -3 12 0 8 11 -9 23 13 83 24 66 4
-7 6 -16 4 -19 -2 -4 3 -7 11 -7 10 0 11 4 4 11 -13 13 -13 46 0 46 5 0 7 -7
4 -15 -5 -11 1 -15 19 -15 14 0 27 7 31 15 3 8 11 15 17 15 8 0 6 -7 -4 -18
-19 -21 -13 -32 15 -32 10 0 18 -6 18 -12 0 -23 20 15 20 38 0 14 10 26 30 34
45 19 50 3 10 -31 l-35 -30 35 7 c42 8 36 2 43 42 6 31 6 32 -28 32 -29 0 -35
4 -36 23 -2 37 2 62 12 65 5 2 16 10 24 19 8 8 15 10 15 4 0 -6 -10 -21 -22
-33 l-23 -23 23 -3 c12 -2 20 -8 17 -13 -4 -5 3 -9 14 -9 19 0 46 32 35 42 -3
3 7 9 22 12 14 4 29 5 32 1 3 -3 -2 -5 -10 -5 -19 0 -42 -53 -35 -80 3 -10 -2
-25 -10 -32 -8 -7 -19 -22 -24 -35 -5 -13 -14 -20 -22 -17 -7 2 -27 0 -43 -7
-50 -20 -77 -19 -92 2 -7 10 -18 19 -23 19 -5 0 -1 -10 10 -22 11 -11 18 -25
15 -30 -3 -4 3 -8 14 -8 13 0 19 -7 18 -22 -2 -29 -14 -48 -29 -47 -9 0 -9 2
1 6 18 7 14 36 -8 56 -11 9 -20 23 -20 32 0 9 -6 12 -16 8 -15 -5 -15 -7 0
-15 9 -5 16 -14 16 -21 0 -7 -4 -6 -10 3 -5 8 -10 11 -10 6 0 -5 -10 -1 -22
10 -12 10 -18 13 -14 7 4 -7 2 -23 -4 -35 -10 -21 -10 -21 3 -5 17 20 43 14
57 -14 7 -12 7 -20 0 -24 -8 -5 -8 -11 -1 -19 6 -7 8 -16 4 -19 -3 -4 -1 -7 5
-7 7 0 12 4 12 8 0 8 47 9 55 0 3 -3 -11 -18 -32 -34 l-38 -29 27 -5 28 -5
-20 -30 c-19 -28 -20 -29 -20 -7 0 13 4 20 10 17 6 -3 10 -1 10 4 0 14 -13 14
-28 -1 -7 -7 -12 -9 -12 -5 0 4 -13 1 -30 -8 -38 -20 -38 -25 0 -20 16 2 33
-1 36 -7 5 -7 1 -9 -9 -5 -12 4 -17 1 -17 -9 0 -11 6 -14 16 -10 11 4 8 -3 -8
-23 -22 -26 -24 -27 -34 -9 -5 10 -13 15 -17 12 -4 -4 -7 -2 -7 4 0 7 5 12 10
12 17 0 11 14 -11 29 -17 10 -23 10 -29 1 -5 -9 -9 -9 -14 -1 -4 6 -19 11 -34
12 -16 0 -21 3 -12 6 32 12 41 48 10 40 -11 -3 -20 0 -20 6 0 6 -7 4 -16 -5
-16 -15 -16 -18 0 -33 14 -14 14 -20 4 -34 -12 -14 -11 -15 5 -2 15 12 23 11
57 -4 22 -10 37 -22 34 -26 -3 -5 2 -12 10 -15 9 -3 13 -10 10 -16 -3 -5 -12
-4 -20 3 -12 10 -13 9 -8 -5 4 -11 13 -15 26 -10 15 4 19 2 16 -7 -7 -22 -48
-20 -48 2 0 20 -15 25 -25 9 -9 -15 -25 -12 -25 4 0 8 10 16 22 18 12 2 24 10
26 18 5 13 3 13 -11 1 -15 -11 -17 -11 -17 2 0 22 -28 29 -54 12 -25 -17 -36
-11 -36 17 0 19 -1 19 -29 -1 -25 -18 -30 -19 -35 -5 -3 8 -11 12 -17 8 -9 -5
-10 1 -5 19 4 19 1 32 -11 44 -21 21 -53 19 -53 -3 0 -8 4 -13 9 -10 15 10 21
-22 6 -34 -10 -8 -17 -6 -30 7 -11 11 -14 18 -6 21 6 2 11 8 11 13 0 6 -4 8
-9 5 -5 -3 -12 1 -15 10 -4 12 -1 14 13 9 11 -3 23 0 27 6 5 8 2 10 -8 6 -9
-3 -19 -3 -22 1 -12 11 -35 10 -30 -2 2 -6 -9 -22 -26 -34 -16 -13 -30 -27
-30 -31 0 -16 50 13 56 32 7 22 13 18 19 -11 2 -12 -1 -25 -7 -28 -7 -4 -8 -2
-4 4 8 13 -6 16 -18 5 -4 -5 -11 -8 -14 -9 -24 -3 -42 -19 -42 -39 0 -12 -7
-28 -15 -35 -13 -11 -15 -7 -15 29 0 30 4 41 15 41 8 0 15 6 15 13 0 7 9 19
20 27 11 8 20 25 20 39 0 22 3 23 40 18 22 -3 40 -1 40 4 0 5 9 9 20 9 15 0
20 7 20 27 0 14 8 35 17 46 17 18 17 19 -1 33 -13 9 -24 10 -36 4 -10 -5 -21
-6 -25 -2 -5 4 -5 1 -1 -5 4 -7 14 -13 22 -13 8 0 14 -5 14 -12 0 -6 -3 -8 -7
-5 -3 4 -15 -1 -26 -10 -19 -18 -19 -17 -15 25 4 47 2 49 -24 25 -17 -15 -18
-15 -18 0 0 10 7 17 15 17 8 0 15 9 15 20 0 21 15 27 25 10 4 -6 11 -7 17 -4
7 5 4 12 -7 21 -16 11 -16 13 -3 13 19 0 31 60 15 75 -7 6 -9 6 -5 1 4 -4 -7
-20 -23 -33 -17 -14 -28 -31 -25 -38 2 -7 -1 -18 -7 -24 -18 -18 -67 46 -67
87 0 36 21 52 45 32 19 -16 19 -27 1 -27 -8 0 -12 6 -9 14 3 7 0 13 -6 13 -19
0 -24 -47 -7 -72 12 -17 16 -19 16 -6 0 9 -4 20 -10 23 -16 10 -11 23 8 21 19
-3 23 -22 10 -48 -4 -9 -4 -19 1 -22 5 -4 12 7 16 24 4 16 13 30 20 30 9 0 12
6 9 15 -5 12 -10 13 -19 5 -11 -9 -12 -7 -8 9 4 15 11 19 27 15 53 -13 88 -6
98 18 4 11 13 15 23 12 8 -3 15 -1 15 6 0 6 -6 8 -12 4 -9 -5 -10 -4 -3 4 6 5
19 12 30 15 18 4 18 5 -2 6 -13 0 -23 6 -23 13 0 6 -3 8 -7 4 -8 -7 -9 -11
-12 -38 -1 -10 -3 -10 -10 1 -6 9 -11 10 -15 2 -4 -6 -2 -11 4 -11 6 0 8 -5 5
-10 -4 -6 -11 -7 -17 -4 -6 4 -8 3 -5 -3 3 -5 0 -10 -7 -10 -7 0 -12 9 -12 20
1 11 -6 22 -14 24 -12 4 -12 3 -2 -5 11 -7 11 -10 -2 -15 -11 -5 -16 -1 -16
13 0 11 5 20 11 20 6 0 9 10 7 23 -2 12 -9 21 -15 20 -6 -2 -11 5 -11 15 0 9
-3 25 -6 34 -6 13 -3 15 13 11 14 -4 21 -1 21 10 0 16 26 30 41 21 14 -8 -1
-26 -17 -20 -12 4 -12 2 -4 -14 8 -14 8 -20 0 -20 -6 0 -8 -4 -5 -10 10 -16
25 -12 25 8 0 9 5 24 11 32 8 13 9 13 7 -2 -2 -9 0 -17 5 -17 21 -2 27 0 27
10 0 5 -4 7 -10 4 -5 -3 -10 -1 -10 4 0 10 22 15 58 14 10 -1 10 2 0 15 -7 8
-12 25 -11 36 3 20 2 20 -6 1 -4 -11 -6 -27 -4 -35 4 -12 1 -11 -9 2 -10 11
-19 14 -29 7 -10 -6 -11 -9 -1 -9 7 0 10 -5 7 -10 -11 -17 -35 9 -35 37 0 13
7 37 15 53 20 38 25 90 12 112 -6 9 -9 19 -6 22 9 10 59 15 54 5 -4 -5 1 -9 9
-9 13 0 14 4 4 26 -9 20 -9 27 1 33 7 5 14 20 14 35 1 14 8 26 15 26 7 0 10 5
7 11 -4 6 -14 8 -22 5 -11 -5 -13 -2 -9 10 4 11 2 15 -7 11 -8 -3 -14 0 -14 7
0 7 11 13 24 14 13 1 22 -2 18 -7 -3 -5 -1 -13 5 -16 6 -4 9 -1 8 6 -2 6 2 13
7 15 12 5 13 -35 2 -53 -10 -15 5 -24 22 -13 9 5 11 14 6 26 -15 33 -13 54 4
54 14 1 14 2 -2 11 -9 5 -21 8 -26 4 -5 -3 -13 0 -16 5 -5 8 -13 6 -24 -4 -15
-13 -22 -14 -44 -3 -15 6 -27 16 -27 20 0 4 -11 -5 -25 -20 -29 -33 -35 -14
-10 33 9 17 15 22 15 13 0 -12 7 -15 24 -12 18 4 22 10 19 24 -4 15 -9 17 -18
9 -19 -16 -28 4 -20 40 5 21 13 30 26 30 20 0 26 24 9 35 -15 9 -12 25 6 25 8
0 12 -4 9 -10 -3 -5 0 -10 7 -10 8 0 22 13 31 30 17 28 17 29 0 23 -15 -6 -16
-5 -3 9 8 8 20 14 26 11 7 -2 15 1 19 6 3 6 11 8 17 5 7 -5 6 -11 -4 -18z
m-2878 -27 c0 -3 -7 -12 -15 -19 -13 -11 -13 -15 -3 -21 10 -6 10 -13 2 -26
-16 -26 -44 -29 -51 -5 -3 13 -13 19 -28 18 -13 0 -21 -6 -18 -13 3 -7 -9 -21
-26 -30 -22 -13 -31 -25 -30 -43 2 -23 2 -24 6 -2 2 12 11 22 19 22 19 0 18
-44 -1 -60 -8 -7 -15 -9 -15 -4 0 4 -5 3 -12 -4 -19 -19 -27 -14 -30 21 -2 19
-8 31 -15 30 -7 -2 -13 4 -13 12 0 10 10 15 31 15 25 0 30 3 25 17 -4 10 1 23
14 35 20 19 25 13 21 -21 -2 -7 3 -10 9 -6 6 4 8 15 5 26 -4 10 -2 19 4 19 6
0 13 11 17 24 5 21 11 24 55 23 27 0 49 -4 49 -8z m2405 -119 c-4 -6 5 -10 20
-10 24 0 25 -1 10 -23 -8 -13 -13 -26 -10 -29 3 -3 -1 -11 -10 -18 -13 -11
-15 -9 -15 14 0 31 -11 33 -35 6 -17 -19 -17 -20 0 -20 10 0 16 -3 12 -6 -9
-9 19 -34 37 -34 21 0 20 -29 -1 -52 -15 -17 -15 -18 1 -18 13 0 12 -7 -11
-41 -29 -44 -68 -66 -88 -49 -6 5 -15 7 -18 3 -4 -3 -7 -1 -7 7 0 10 -3 10
-15 0 -8 -6 -19 -9 -25 -5 -18 11 -11 32 13 39 35 9 69 7 62 -4 -4 -6 7 -10
24 -10 24 0 31 4 31 20 0 11 5 20 10 20 6 0 10 5 10 10 0 6 -9 10 -20 10 -16
0 -20 7 -20 31 0 16 -4 28 -8 25 -5 -3 -9 15 -9 39 0 29 5 45 13 45 7 0 15 14
19 30 4 17 13 30 21 30 9 0 12 -4 9 -10z m-2545 -105 c-11 -13 -10 -14 5 -9
14 6 16 4 10 -7 -8 -12 -6 -12 8 0 18 15 23 26 7 16 -5 -3 -10 -1 -10 4 0 14
27 14 35 1 4 -6 11 -8 16 -5 13 9 50 -5 44 -16 -4 -5 -1 -9 6 -9 8 0 8 -5 -2
-16 -9 -11 -15 -12 -17 -4 -3 7 -10 6 -23 -6 -15 -13 -19 -14 -19 -3 -1 10 -4
10 -14 -3 -7 -10 -15 -16 -18 -13 -2 3 -5 -2 -5 -10 0 -8 5 -15 10 -15 5 0 4
-7 -3 -15 -18 -22 -33 -18 -27 8 5 20 4 19 -14 -5 -25 -34 -68 -38 -87 -8 -13
21 -9 40 8 40 5 0 7 -6 4 -13 -3 -8 2 -14 11 -14 8 0 15 7 15 14 0 15 23 43
35 43 4 0 5 -7 1 -15 -3 -9 0 -15 9 -15 20 0 19 26 -1 34 -9 4 -22 2 -29 -4
-6 -5 -15 -6 -19 -2 -4 4 -6 0 -4 -8 2 -8 -5 -14 -17 -15 -10 0 -24 -10 -31
-23 -6 -12 -22 -34 -34 -47 -13 -14 -18 -25 -11 -25 7 0 9 -5 6 -10 -4 -6 -11
-7 -17 -4 -6 4 -8 3 -5 -3 4 -6 0 -19 -8 -29 -24 -32 -17 -40 10 -11 26 27 55
36 55 17 0 -5 7 -10 16 -10 8 0 12 -4 9 -10 -3 -5 -1 -10 6 -10 8 0 8 -4 -1
-15 -10 -12 -15 -13 -21 -3 -4 6 -6 15 -4 18 1 3 -3 11 -11 18 -16 15 -18 8
-4 -18 7 -13 7 -21 0 -25 -5 -3 -10 -1 -10 6 0 8 -4 8 -15 -1 -9 -8 -15 -9
-15 -2 0 6 5 14 10 17 6 3 10 11 10 17 0 7 -13 -1 -30 -17 l-30 -29 0 36 c0
20 5 38 11 40 6 2 12 20 14 41 2 22 0 35 -6 31 -5 -3 -6 -10 -3 -16 5 -7 2 -8
-6 -3 -10 6 -12 4 -7 -8 3 -8 0 -21 -8 -27 -7 -6 -12 -20 -10 -30 2 -10 -7
-28 -19 -40 -21 -19 -24 -19 -30 -4 -5 12 -2 15 10 10 10 -4 14 -2 11 6 -2 7
-10 12 -16 11 -6 -2 -11 2 -11 7 0 6 6 10 13 10 6 0 4 5 -5 11 -10 5 -18 15
-18 20 0 6 4 8 9 5 5 -3 11 1 15 9 3 9 -1 15 -10 15 -10 0 -14 6 -10 15 3 8 1
15 -5 15 -5 0 -1 12 8 27 17 26 17 27 0 20 -9 -3 -17 -2 -17 3 0 6 6 10 13 10
9 0 8 3 -2 9 -11 7 -10 11 5 20 17 9 17 10 2 11 -9 0 -19 4 -23 9 -3 6 6 6 25
1 17 -5 30 -5 30 0 0 13 33 -1 46 -18 8 -11 13 -12 18 -4 4 7 13 12 19 12 7 0
6 -4 -3 -10 -11 -6 -2 -9 30 -7 32 1 44 -2 43 -10 -2 -7 2 -13 7 -13 6 0 10 4
10 9 0 5 14 12 30 16 21 5 30 13 30 26 0 11 7 19 16 19 14 0 14 -3 4 -15z
m2619 -171 c-17 -18 -20 -27 -12 -35 13 -13 33 -3 33 17 0 8 7 14 15 14 8 0
15 -6 15 -13 0 -20 -32 -45 -52 -42 -9 2 -15 -2 -12 -9 2 -6 -37 -52 -87 -101
-51 -49 -87 -91 -80 -93 9 -3 8 -9 -4 -22 -15 -17 -15 -20 0 -44 15 -23 16
-32 5 -71 -7 -25 -17 -48 -22 -51 -4 -3 -6 -10 -2 -15 10 -17 -27 -49 -56 -49
-15 0 -47 -7 -70 -15 -23 -8 -44 -15 -45 -15 -2 0 -6 13 -10 29 l-6 29 -34
-36 c-26 -28 -35 -33 -35 -19 0 9 7 17 15 17 9 0 12 6 9 15 -4 8 -15 15 -25
15 -15 0 -19 7 -19 35 0 21 5 35 13 35 6 0 21 3 32 6 16 4 20 0 21 -21 2 -30
15 -46 21 -27 3 6 11 12 18 12 7 0 15 6 17 12 4 10 10 10 29 2 28 -13 49 -8
49 12 0 8 5 14 10 14 6 0 10 4 10 10 0 6 -9 5 -24 -1 -15 -7 -22 -17 -19 -25
4 -10 0 -12 -11 -8 -20 8 -21 48 -1 64 8 7 15 28 15 47 0 29 -3 33 -14 24 -10
-9 -16 -5 -27 16 -8 16 -20 29 -27 31 -10 2 -10 -2 -2 -18 6 -11 15 -20 20
-20 6 0 10 -6 10 -14 0 -8 6 -16 13 -19 18 -7 -6 -42 -30 -43 -11 -1 -25 -4
-32 -8 -7 -5 -11 8 -12 41 -1 26 -1 51 0 55 0 4 -6 5 -15 1 -13 -5 -13 -7 -2
-14 10 -7 10 -9 -1 -9 -8 0 -28 -12 -43 -27 -22 -21 -28 -23 -28 -10 0 9 7 17
15 17 11 0 14 7 9 25 -5 19 -2 25 10 25 9 0 16 5 16 10 0 6 10 10 23 10 42 0
67 12 67 32 0 10 3 17 8 15 4 -3 5 15 3 40 -2 25 1 49 6 54 16 16 62 -7 59
-28 -2 -10 -1 -12 1 -5 5 15 19 16 28 2 3 -5 1 -10 -6 -10 -7 0 -10 -2 -7 -5
8 -8 38 6 38 17 0 5 -4 7 -8 4 -10 -6 -47 25 -55 46 -4 10 -8 10 -16 -2 -9
-13 -11 -13 -11 3 0 12 8 17 26 17 14 0 23 -4 19 -10 -3 -5 -1 -10 5 -10 6 0
8 -4 5 -10 -3 -5 -1 -10 4 -10 6 0 11 9 11 20 0 11 6 20 14 20 8 0 16 5 18 12
3 8 12 8 32 2 25 -9 26 -11 12 -23 -14 -11 -16 -11 -16 3 0 13 -3 14 -19 4
-11 -7 -18 -15 -15 -19 2 -4 0 -10 -6 -14 -11 -7 -4 -25 10 -25 15 0 120 111
120 127 0 10 6 14 20 10 12 -3 20 0 20 8 0 8 13 13 36 13 l36 0 -23 -24z
m-2367 -95 c18 -10 14 -41 -8 -60 -11 -9 -14 -8 -14 6 0 10 -3 15 -7 12 -3 -4
-13 -2 -20 5 -12 9 -19 6 -38 -18 -13 -16 -19 -32 -14 -35 6 -3 4 -11 -5 -18
-12 -10 -16 -8 -21 9 -6 20 -8 20 -24 6 -10 -9 -21 -13 -26 -9 -4 5 -5 2 0 -6
6 -11 3 -13 -13 -9 -12 4 -20 2 -16 -3 3 -5 17 -9 31 -9 21 0 24 -2 13 -15
-10 -13 -9 -15 9 -15 13 0 19 -4 16 -10 -4 -6 -12 -7 -18 -4 -7 4 -9 3 -4 -1
4 -5 0 -19 -8 -32 -9 -13 -12 -23 -9 -23 4 0 0 -8 -9 -18 -10 -10 -15 -21 -11
-24 9 -9 44 4 38 14 -3 5 2 16 12 23 18 13 17 14 -6 8 -17 -3 -12 2 15 16 51
27 52 27 21 -10 -14 -17 -26 -40 -26 -52 0 -12 -10 -33 -21 -47 -11 -14 -18
-20 -15 -13 4 6 2 14 -3 17 -5 4 -8 -2 -7 -11 3 -20 22 -28 31 -14 3 6 11 11
17 11 6 0 3 -9 -7 -20 -24 -26 -6 -50 18 -26 9 9 20 16 26 16 6 0 11 6 11 14
0 15 21 26 52 26 11 0 18 5 16 11 -2 6 -8 10 -13 10 -21 0 -45 33 -45 61 0 32
7 36 65 40 22 2 43 7 46 11 7 10 120 -3 114 -14 -3 -4 4 -10 15 -14 11 -4 18
-11 15 -16 -4 -5 -1 -9 5 -9 6 0 8 -5 5 -10 -4 -6 -11 -7 -17 -4 -6 4 -8 2 -5
-3 6 -10 -15 -25 -38 -27 -5 -1 -15 17 -20 39 -8 28 -17 41 -30 42 -19 3 -19
3 0 -7 16 -8 11 -9 -20 -6 -37 5 -38 4 -21 -9 11 -8 27 -15 36 -15 20 0 21
-40 1 -64 -12 -14 -9 -16 23 -16 20 0 36 4 36 9 0 5 11 12 25 15 14 4 25 11
25 16 0 6 7 10 17 10 14 0 14 -2 -2 -20 -10 -11 -21 -18 -24 -15 -4 2 -7 -5
-7 -16 0 -10 7 -19 15 -19 12 0 12 -3 3 -12 -17 -17 -40 -18 -46 -2 -3 8 -1
14 4 14 6 0 10 8 10 17 0 22 -20 4 -25 -23 -2 -11 -4 -21 -5 -24 -1 -3 -6 6
-11 19 -7 19 -12 21 -24 11 -10 -9 -12 -17 -5 -30 7 -13 4 -23 -14 -39 l-23
-22 -5 26 c-4 16 -1 24 6 22 6 -3 10 -10 8 -16 -1 -7 3 -9 9 -6 6 4 8 17 5 28
-3 12 0 28 7 36 10 12 9 14 -5 8 -10 -3 -18 -2 -18 4 0 18 -28 39 -44 33 -23
-9 -20 -22 7 -26 12 -2 21 -9 20 -16 -2 -6 2 -12 8 -12 5 0 7 -5 3 -11 -5 -8
-10 -6 -18 7 -15 25 -44 29 -66 9 -12 -11 -20 -13 -25 -6 -3 6 1 11 11 11 10
0 15 3 11 6 -3 4 -13 4 -21 1 -13 -5 -13 -12 -5 -37 9 -26 8 -34 -6 -50 -10
-11 -25 -20 -33 -20 -9 0 -13 -2 -10 -5 3 -3 33 2 68 11 55 14 64 14 77 1 11
-11 24 -12 51 -6 36 8 64 -2 43 -15 -6 -4 -11 -3 -11 2 0 5 -13 7 -29 4 -22
-3 -28 -8 -24 -21 8 -20 23 -31 44 -31 17 0 30 31 37 87 2 12 72 16 72 4 0 -4
12 -13 26 -19 14 -7 22 -17 18 -23 -4 -7 10 -9 46 -5 44 5 50 3 41 -8 -7 -8
-23 -13 -37 -11 -19 2 -22 0 -13 -11 6 -8 8 -14 3 -15 -5 -1 2 -4 15 -8 23 -6
23 -7 5 -21 -10 -9 -15 -10 -10 -3 5 9 -1 12 -23 9 -29 -3 -35 6 -43 72 -1 6
-5 12 -9 12 -4 0 -15 7 -23 16 -15 14 -16 14 -16 0 0 -9 7 -16 15 -16 13 0 17
-6 14 -26 0 -4 5 -10 11 -14 9 -6 9 -13 1 -29 -7 -12 -16 -19 -22 -16 -12 8
-12 -2 1 -26 6 -11 7 -19 1 -19 -13 0 -21 26 -21 68 0 20 -3 47 -6 59 -6 23
-6 23 -28 -4 -24 -31 -27 -46 -9 -53 8 -3 2 -19 -17 -47 -16 -23 -27 -51 -25
-62 2 -11 -3 -25 -11 -32 -11 -9 -14 -8 -14 5 0 10 -4 14 -10 11 -5 -3 -12 6
-16 20 -5 21 -9 23 -21 14 -8 -7 -13 -8 -12 -3 5 16 -12 74 -22 75 -5 1 -13 2
-18 3 -5 0 -13 4 -17 9 -4 4 -16 -1 -26 -10 -11 -10 -19 -13 -18 -8 4 20 0 36
-8 31 -5 -3 -9 1 -9 9 0 10 5 11 18 4 25 -13 29 -11 22 7 -5 13 -2 15 18 9 21
-7 22 -6 7 8 -13 13 -22 14 -51 5 -20 -6 -34 -15 -31 -20 3 -4 0 -8 -5 -8 -6
0 -11 14 -11 31 0 24 -4 30 -15 25 -8 -3 -15 0 -15 6 0 7 -6 3 -14 -7 -18 -25
-54 -27 -62 -3 -3 10 -13 18 -22 18 -14 0 -14 -2 2 -13 16 -12 16 -14 2 -26
-14 -12 -16 -12 -10 3 6 14 -5 21 -28 17 -5 0 -8 3 -8 9 0 5 6 10 13 10 8 0 7
3 -3 10 -10 6 1 8 33 5 25 -2 49 0 52 5 9 14 -7 69 -19 67 -6 -1 -10 6 -8 15
2 13 -3 17 -21 16 -28 -2 -31 -33 -4 -33 17 0 48 -25 32 -25 -6 0 -3 -5 5 -10
12 -8 9 -10 -12 -10 -19 0 -28 5 -28 16 0 8 -4 13 -9 9 -5 -3 -13 4 -16 16 -4
12 -12 18 -21 15 -8 -3 -14 -1 -14 4 0 6 -7 10 -16 10 -13 0 -15 6 -9 27 6 26
6 27 -12 11 -18 -16 -20 -16 -38 9 -11 14 -25 31 -31 37 -15 16 -6 36 17 36
10 0 19 5 19 11 0 5 -5 7 -11 4 -7 -5 -9 3 -7 21 2 17 10 28 21 30 11 1 22 6
25 10 4 4 -1 4 -10 1 -10 -4 -18 -2 -18 3 0 6 12 10 26 10 23 0 25 -2 13 -16
-11 -13 -21 -54 -13 -54 2 0 19 9 38 21 31 18 34 23 23 39 -6 11 -8 22 -4 26
10 10 58 -17 51 -28 -3 -5 -16 -1 -27 9 -22 18 -22 18 -4 -3 10 -12 29 -24 42
-26 19 -4 26 1 35 22 6 15 17 27 25 27 8 0 12 -4 9 -9 -3 -4 0 -8 6 -8 8 0 9
10 5 30 -10 46 2 73 30 66 13 -3 27 -2 30 4 7 11 78 3 107 -11z m1382 -481
c-19 -34 -56 -78 -62 -74 -4 2 -7 -7 -7 -20 0 -13 3 -24 7 -24 4 0 5 -11 2
-24 -3 -17 1 -25 16 -29 23 -6 24 -4 8 24 -10 17 -10 23 0 26 6 3 12 14 12 25
0 16 5 19 24 16 20 -4 25 0 30 24 3 16 12 28 20 28 10 0 13 -6 10 -15 -4 -8
-11 -12 -17 -8 -6 3 -7 1 -3 -5 4 -7 16 -12 26 -12 11 0 17 -5 15 -12 -3 -9 5
-13 24 -14 45 -2 61 -11 60 -36 l0 -23 -9 23 c-5 12 -15 22 -21 22 -8 0 -7 -5
2 -17 28 -37 48 -53 54 -43 3 6 13 10 21 10 8 0 12 -5 9 -10 -4 -6 -12 -7 -18
-3 -8 5 -8 2 1 -9 10 -12 10 -18 -2 -27 -8 -7 -16 -8 -18 -3 -1 4 -14 2 -28
-5 -14 -7 -19 -13 -12 -13 17 0 15 -25 -3 -40 -13 -11 -15 -6 -15 36 0 34 -3
44 -9 34 -6 -8 -8 -17 -5 -22 3 -4 -4 -13 -16 -20 -11 -7 -20 -22 -19 -33 0
-11 3 -14 6 -7 2 6 12 12 21 12 14 -1 12 -5 -7 -20 -18 -16 -27 -18 -37 -9
-11 9 -14 8 -14 -5 0 -9 3 -15 8 -15 28 5 42 -3 41 -23 0 -22 -1 -22 -9 -3 -8
18 -9 17 -7 -6 1 -21 5 -25 24 -21 19 3 23 11 23 38 0 24 5 34 15 34 9 0 15
-9 14 -22 0 -22 -1 -22 -9 -3 -5 12 -9 14 -9 6 -1 -8 6 -22 14 -31 13 -14 11
-19 -17 -49 -17 -18 -33 -29 -37 -23 -3 5 -13 12 -21 16 -9 3 -6 4 7 2 12 -2
28 3 35 12 11 14 9 15 -19 9 -32 -6 -33 -5 -33 26 -1 31 -1 31 -16 12 -8 -11
-20 -19 -25 -17 -6 1 -8 -2 -4 -8 12 -19 -15 -40 -43 -33 -16 4 -23 2 -19 -4
7 -12 -17 -36 -39 -39 -8 -1 -16 2 -20 7 -3 5 -12 5 -23 -1 -18 -9 -31 -4 -31
12 0 5 5 6 10 3 6 -3 10 -1 10 4 0 13 -27 14 -35 2 -3 -5 -17 -7 -32 -5 -25 5
-26 4 -12 -13 26 -30 30 -41 18 -49 -7 -4 -10 -3 -7 2 3 5 -3 17 -14 27 -15
14 -18 14 -18 2 0 -8 5 -15 11 -15 5 0 7 -4 4 -10 -3 -5 -1 -10 5 -10 6 0 9
-4 6 -8 -3 -5 9 -6 26 -4 19 3 25 7 18 12 -7 4 -9 13 -5 20 5 9 4 11 -3 6 -7
-4 -12 -2 -12 3 0 17 20 13 26 -4 6 -14 8 -14 18 0 15 20 46 10 40 -13 -3 -9
0 -8 7 4 8 15 18 20 35 16 28 -5 29 -10 9 -39 -10 -14 -11 -23 -4 -25 7 -2 5
-9 -5 -17 -14 -12 -16 -11 -16 7 0 14 -5 20 -14 16 -7 -3 -16 2 -19 10 -4 9
-14 16 -22 16 -9 0 -14 -4 -11 -9 3 -5 -1 -14 -9 -21 -12 -10 -15 -10 -15 1 0
10 -3 10 -11 2 -6 -6 -17 -9 -24 -7 -16 7 -29 -12 -15 -21 5 -3 10 -1 10 5 0
6 4 8 10 5 6 -4 4 -15 -6 -30 -9 -14 -19 -23 -23 -20 -4 2 -8 -3 -8 -11 0 -9
6 -13 14 -9 8 3 19 5 24 5 5 0 9 9 9 20 0 20 33 40 67 40 13 0 12 -5 -7 -25
-19 -21 -21 -25 -7 -25 9 0 17 7 17 15 0 8 7 15 15 15 8 0 15 -5 15 -11 0 -5
-5 -7 -12 -3 -7 4 -8 3 -4 -4 9 -15 43 -16 51 -2 11 18 32 11 30 -10 -2 -30
-23 -48 -31 -26 -5 13 -9 14 -20 5 -12 -9 -18 -8 -29 7 -9 11 -14 13 -13 5 2
-7 -4 -16 -12 -18 -13 -4 -13 -3 0 6 13 9 12 11 -6 11 -29 0 -36 10 -21 29 11
14 10 14 -6 2 -16 -13 -16 -15 -1 -32 18 -20 6 -27 -13 -8 -7 7 -13 7 -17 0
-4 -6 10 -15 34 -21 22 -6 38 -15 35 -20 -4 -6 1 -10 11 -10 12 0 14 -3 6 -13
-8 -9 -8 -17 0 -27 8 -12 9 -11 4 4 -5 14 -2 17 9 12 9 -3 14 -2 11 2 -7 12
17 38 43 47 15 4 21 3 17 -3 -3 -5 1 -15 10 -22 12 -11 12 -15 2 -22 -13 -8
38 0 55 9 11 6 8 33 -4 33 -5 0 -8 4 -5 9 5 8 -2 8 -33 2 -2 -1 2 -7 8 -15 7
-8 8 -17 3 -20 -6 -3 -15 0 -21 8 -8 10 -6 18 8 34 22 26 39 27 69 6 22 -15
21 -40 -1 -28 -7 4 -9 3 -4 -1 11 -12 -32 -55 -49 -48 -8 3 -14 -1 -14 -8 0
-7 -7 -20 -16 -30 -17 -19 -11 -39 12 -39 8 0 12 -5 9 -10 -4 -6 -11 -7 -17
-4 -7 4 -8 2 -4 -4 12 -20 35 -13 42 13 3 14 13 25 20 25 10 0 13 7 8 24 -5
23 -4 24 38 21 60 -4 58 -4 58 -15 0 -7 -7 -7 -21 1 -13 7 -19 7 -15 1 4 -6
-2 -10 -14 -9 -11 1 -20 5 -20 10 0 4 -5 5 -11 1 -8 -5 -8 -9 1 -14 6 -4 11
-11 10 -16 -1 -5 3 -10 9 -12 6 -2 8 3 5 11 -7 18 20 14 50 -8 18 -14 18 -15
-7 -48 -17 -22 -22 -38 -17 -48 6 -9 3 -20 -7 -31 -11 -12 -12 -18 -4 -18 8 0
9 -5 3 -17 -7 -11 -6 -23 1 -34 9 -15 7 -22 -12 -38 -20 -17 -27 -19 -40 -9
-9 7 -13 9 -9 4 4 -4 -7 -20 -24 -34 -28 -24 -29 -27 -12 -33 15 -6 16 -8 3
-8 -9 -1 -22 6 -29 14 -7 8 -16 12 -21 10 -8 -6 -29 26 -29 44 0 6 12 11 28
11 42 0 72 11 72 26 0 8 4 14 10 14 5 0 7 -8 4 -17 -5 -14 -4 -15 4 -4 6 8 8
21 5 28 -4 10 0 13 12 11 10 -2 19 3 21 10 1 7 0 9 -2 4 -6 -12 -54 -2 -55 12
-1 6 -3 18 -4 26 -1 8 -3 21 -4 27 0 7 -7 12 -13 10 -7 -1 -12 6 -12 16 1 9
-4 17 -11 17 -17 0 -16 -47 1 -61 12 -10 13 -9 8 5 -5 12 -2 15 10 10 13 -5
14 -9 5 -21 -7 -7 -18 -12 -25 -9 -7 3 -16 1 -19 -5 -4 -5 -11 -7 -16 -3 -5 3
-21 -2 -34 -10 -25 -16 -25 -16 -25 14 0 20 5 30 15 30 8 0 15 5 15 10 0 6 8
10 19 10 10 0 21 9 24 20 6 22 -8 37 -18 20 -14 -23 -44 -10 -55 26 l-12 35
-16 -32 c-10 -18 -26 -34 -37 -36 -11 -1 -35 -4 -52 -6 -18 -2 -36 -7 -40 -12
-5 -4 -1 -4 7 0 10 5 8 0 -4 -13 -11 -12 -22 -20 -25 -17 -3 4 1 10 9 15 13 8
13 10 1 10 -12 0 -12 3 -3 12 19 19 14 30 -10 22 -31 -9 -53 -44 -28 -44 6 0
10 7 10 15 0 8 4 15 8 15 13 0 7 -59 -6 -72 -9 -9 -15 -9 -24 0 -7 7 -19 12
-27 12 -9 0 0 -8 19 -17 43 -21 61 -38 52 -48 -4 -5 -1 -5 6 -1 6 4 12 14 12
22 0 8 5 14 10 14 6 0 8 -11 6 -25 -3 -15 0 -25 7 -26 7 0 3 -4 -8 -9 -16 -7
-17 -9 -3 -9 9 -1 19 3 22 8 3 5 15 7 26 4 15 -4 18 -9 10 -18 -5 -6 -8 -14
-5 -17 3 -2 -8 -17 -24 -32 l-30 -28 -7 36 c-3 21 -14 42 -24 48 -10 6 -15 19
-13 28 3 10 0 21 -6 24 -7 5 -8 1 -4 -10 4 -10 2 -15 -3 -11 -6 3 -16 1 -24
-5 -13 -8 -12 -9 1 -5 12 4 17 -1 17 -21 0 -15 -5 -33 -10 -39 -11 -14 -7 -16
16 -7 8 3 12 12 9 20 -3 8 1 14 11 14 9 0 16 -3 16 -7 -1 -11 -30 -49 -30 -39
0 5 -6 3 -13 -3 -8 -6 -17 -8 -20 -4 -4 3 -7 2 -7 -4 0 -8 -13 -8 -42 -1 -59
13 -63 21 -5 13 39 -6 47 -5 47 8 0 8 5 17 12 19 7 3 8 9 3 18 -7 11 -10 11
-19 -1 -15 -19 -46 -20 -46 -2 0 8 -5 11 -12 7 -21 -13 -58 -10 -58 4 0 8 6
12 13 9 8 -3 14 3 14 15 1 11 5 23 8 26 9 9 40 -13 40 -29 0 -14 14 -29 28
-29 4 0 7 11 7 24 0 13 8 27 17 30 15 6 15 8 1 23 -10 9 -21 12 -29 7 -10 -6
-7 -10 11 -15 22 -6 22 -7 4 -8 -17 -1 -20 -6 -17 -28 l4 -28 -14 30 c-8 17
-11 34 -6 40 5 5 9 17 9 27 0 21 39 25 58 6 9 -9 12 -8 12 5 0 9 -6 17 -14 17
-10 0 -14 11 -13 35 1 30 4 34 23 29 19 -5 22 -3 17 17 -4 15 -3 20 6 15 6 -4
9 -12 6 -17 -4 -5 -1 -9 4 -9 15 0 14 13 -1 29 -11 11 -9 13 12 7 14 -3 31 -6
38 -6 7 0 10 -5 7 -10 -4 -6 -10 -8 -15 -5 -5 3 -11 2 -14 -3 -2 -4 4 -9 15
-9 10 -1 19 2 19 8 0 5 5 9 11 9 5 0 7 -4 4 -10 -3 -5 -1 -10 5 -10 6 0 8 -5
4 -12 -5 -8 -2 -9 10 -5 10 4 21 7 25 7 4 0 7 8 7 18 0 10 -6 19 -13 19 -7 0
-10 -4 -7 -8 2 -4 0 -10 -5 -13 -15 -9 -20 18 -7 37 10 12 15 14 24 5 9 -9 12
-9 12 0 0 7 -4 13 -10 14 -28 4 -35 2 -35 -11 0 -8 -6 -16 -12 -18 -15 -5 -17
13 -3 22 9 5 4 52 -6 64 -2 2 -12 -2 -21 -10 -15 -11 -16 -11 -5 1 15 17 16
30 2 30 -6 0 -9 -6 -8 -12 2 -7 -2 -12 -9 -11 -15 3 -36 -24 -28 -37 8 -13 25
-13 25 1 0 5 -4 7 -10 4 -5 -3 -10 -2 -10 4 0 18 20 23 26 7 3 -9 10 -13 15
-10 5 3 9 1 9 -4 0 -14 -28 -35 -38 -28 -5 3 -20 -6 -32 -19 -16 -17 -30 -23
-44 -19 -15 4 -17 3 -7 -4 17 -12 -3 -27 -21 -16 -7 4 -10 3 -5 -1 4 -5 -4
-16 -19 -25 -20 -13 -22 -19 -11 -23 9 -3 18 0 20 7 3 7 15 16 26 19 12 3 19
1 15 -4 -3 -5 -11 -9 -17 -9 -7 0 -18 -9 -25 -20 -11 -18 -15 -19 -27 -7 -8 8
-16 27 -18 43 -3 23 -9 29 -27 29 -13 0 -25 6 -28 14 -3 9 0 11 8 6 10 -6 12
-2 7 16 -4 13 -7 44 -7 69 0 29 -3 40 -9 31 -5 -7 -6 -23 -4 -35 5 -21 5 -21
-10 -1 -8 11 -12 22 -8 25 17 11 30 48 24 68 -4 16 -1 22 12 22 14 0 15 -3 5
-15 -10 -12 -10 -15 4 -15 9 0 16 4 16 9 0 5 10 11 22 13 13 2 24 11 27 23 7
38 44 41 54 4 3 -11 14 -19 25 -19 12 0 24 -5 27 -10 9 -15 -14 -41 -29 -33
-6 3 -8 3 -4 -2 4 -4 3 -14 -4 -22 -9 -11 -15 -7 -29 24 -10 21 -19 31 -19 23
-6 -76 -7 -75 40 -71 11 1 10 -1 -3 -9 -9 -6 -15 -15 -12 -20 3 -5 1 -11 -5
-15 -5 -3 -10 -10 -10 -16 0 -5 8 -1 18 9 12 11 14 20 8 24 -7 5 -4 8 7 8 22
0 22 -18 0 -42 -10 -12 -12 -18 -4 -18 7 0 10 -4 6 -9 -3 -5 0 -13 7 -17 7 -4
10 -4 6 1 -4 4 2 16 13 26 12 10 16 20 9 24 -15 9 -12 45 3 45 16 0 37 41 37
71 0 11 -4 17 -10 14 -5 -3 -10 3 -10 14 0 11 9 22 20 26 11 3 20 15 20 25 0
25 -16 34 -24 14 -5 -14 -9 -13 -25 7 -22 27 -47 33 -55 12 -5 -12 -1 -14 20
-9 18 5 24 3 18 -5 -5 -8 -2 -10 7 -5 8 4 5 0 -5 -8 -14 -11 -22 -13 -27 -5
-4 6 -12 8 -18 5 -14 -9 -14 9 0 36 14 26 4 35 -18 16 -23 -19 -73 -29 -73
-14 0 6 -5 4 -10 -4 -6 -10 -10 -11 -10 -2 0 7 -13 12 -32 11 l-33 -1 30 -13
c17 -8 47 -12 70 -9 l39 5 -24 -26 c-23 -24 -25 -25 -37 -9 -10 14 -16 15 -25
6 -19 -19 -51 -15 -46 6 3 10 -1 23 -9 30 -7 7 -13 10 -13 5 0 -4 -7 2 -16 13
-8 10 -13 13 -9 7 3 -7 1 -13 -4 -13 -6 0 -11 7 -11 16 0 11 6 15 19 11 14 -3
17 0 14 14 -4 12 0 19 10 19 9 0 14 -9 13 -22 -1 -20 5 -23 40 -26 l40 -3 -4
36 c-3 27 -1 35 12 35 9 0 25 6 36 12 16 10 24 10 40 0 11 -6 23 -12 27 -12 5
0 0 5 -9 11 -22 12 -23 29 -2 29 8 0 12 -4 9 -10 -6 -9 22 -15 53 -11 6 1 12
-5 12 -14 0 -9 -4 -14 -9 -10 -6 3 -15 -3 -21 -14 -7 -14 -7 -22 0 -26 6 -4
10 -3 9 2 -5 26 2 31 31 23 26 -8 30 -6 30 11 0 28 23 49 41 38 25 -16 30 -10
26 34 -3 23 -1 50 4 60 6 10 6 17 0 17 -5 0 -12 -7 -15 -16 -8 -20 -26 -8 -26
18 0 15 5 19 20 15 13 -3 20 0 20 9 0 17 17 19 22 2 3 -8 6 -7 10 3 9 24 -31
21 -71 -7 -20 -13 -35 -26 -33 -29 6 -13 1 -24 -10 -21 -7 1 -9 1 -4 -2 4 -2
2 -8 -5 -13 -11 -7 -10 -9 4 -9 9 0 17 5 17 10 0 16 26 12 43 -7 12 -14 13
-21 4 -33 -13 -16 -31 -20 -43 -8 -9 10 -24 0 -24 -15 0 -7 4 -6 10 3 5 8 10
10 10 4 0 -6 -7 -17 -15 -24 -12 -10 -15 -9 -15 7 0 11 -7 20 -15 20 -8 0 -12
-4 -9 -8 2 -4 0 -10 -6 -14 -5 -3 -10 1 -10 10 0 9 -4 13 -10 10 -5 -3 -10 0
-10 9 0 14 -23 16 -36 3 -4 -4 -17 -7 -29 -7 -11 0 -26 -5 -33 -12 -7 -7 -12
-8 -12 -4 0 5 -8 2 -17 -5 -11 -10 -14 -10 -9 -1 9 15 -6 16 -22 0 -9 -9 -12
-9 -12 0 0 7 5 12 10 12 6 0 10 5 10 11 0 5 -4 7 -10 4 -5 -3 -10 -2 -10 4 0
5 6 11 13 14 6 3 2 4 -10 4 -12 -1 -19 -5 -17 -9 3 -4 1 -8 -5 -8 -5 0 -12 4
-15 9 -8 13 -44 2 -42 -12 1 -7 6 -18 10 -26 7 -11 4 -13 -13 -8 -15 3 -21 1
-18 -6 3 -7 10 -11 17 -9 11 3 11 0 1 -12 -7 -9 -17 -14 -21 -11 -5 3 -11 1
-15 -5 -3 -6 -15 0 -28 14 -18 19 -25 21 -39 12 -35 -22 -72 27 -49 63 8 12
15 12 33 4 22 -10 24 -8 26 16 1 14 7 28 12 29 6 2 10 12 10 23 0 10 7 19 15
19 17 0 20 -16 5 -25 -16 -10 -12 -33 6 -37 14 -3 14 -5 -2 -23 -11 -12 -15
-15 -10 -8 5 8 6 16 4 19 -3 3 -16 -10 -29 -28 -13 -18 -16 -28 -8 -21 12 10
20 9 37 -3 21 -15 22 -14 22 15 0 28 3 31 31 31 22 0 32 5 36 20 3 11 14 20
25 20 10 0 17 -4 13 -9 -3 -5 4 -12 15 -16 11 -3 21 -11 21 -16 1 -5 2 -13 3
-18 0 -5 5 -13 10 -18 5 -5 6 -3 2 5 -4 6 -3 12 2 12 6 0 8 9 5 20 -4 15 0 20
16 20 11 0 21 5 21 10 0 10 -14 14 -39 10 -32 -4 -40 42 -11 67 11 10 20 26
20 35 0 10 6 28 13 39 10 17 10 23 0 26 -7 3 -13 14 -13 25 0 16 5 19 24 16
14 -3 31 -1 38 4 9 7 8 8 -5 4 -11 -3 -16 -2 -12 4 3 6 16 10 27 10 20 0 21
-1 3 -20 -11 -12 -13 -20 -6 -20 7 0 10 -4 6 -9 -3 -6 2 -14 11 -19 28 -15 70
39 47 61 -3 4 -12 2 -20 -4 -10 -9 -13 -8 -13 4 0 8 10 17 23 21 35 9 40 7 27
-9 -11 -13 -9 -15 16 -13 59 4 115 -2 109 -12 -3 -5 0 -10 9 -10 8 0 17 -6 19
-12 3 -7 6 -3 6 10 1 22 25 31 36 12 8 -13 30 8 39 38 4 12 14 22 22 22 9 0
12 -5 8 -12z m-1129 -57 c7 -12 64 -11 71 1 3 4 11 8 17 8 7 0 6 -4 -3 -10
-13 -8 -12 -10 4 -10 16 0 16 -2 5 -16 -7 -8 -21 -13 -30 -11 -10 3 -23 -1
-30 -9 -12 -14 -3 -19 29 -15 8 1 22 -5 32 -14 16 -14 18 -14 31 1 13 16 12
17 -8 12 -13 -4 -23 -2 -23 3 0 5 14 9 32 9 l31 0 -23 -25 c-21 -22 -21 -25
-6 -25 15 0 16 -3 6 -15 -16 -20 -28 -19 -32 2 -2 9 -14 17 -27 18 -21 2 -22
0 -7 -10 13 -10 14 -14 3 -23 -14 -12 -57 -5 -57 9 0 5 -9 9 -21 9 -33 0 -16
-25 20 -28 33 -3 37 -18 8 -36 -12 -8 -21 -4 -39 19 -12 16 -23 36 -23 44 -4
43 -6 51 -13 51 -13 0 -10 -30 2 -31 6 0 2 -4 -9 -9 -16 -7 -17 -9 -3 -9 35
-2 -3 -61 -39 -61 -15 0 -18 27 -4 32 5 2 11 12 13 23 1 11 7 23 13 27 13 9
-1 22 -15 13 -6 -4 -9 -13 -6 -21 3 -8 1 -14 -4 -14 -12 0 -13 20 -2 36 4 5
23 15 42 20 30 9 35 14 32 37 -3 27 20 39 33 18z m-165 -221 c0 -13 7 -20 18
-20 22 0 42 -19 42 -40 0 -21 34 -53 45 -43 5 5 3 0 -4 -9 -8 -11 -9 -18 -3
-18 6 0 13 4 16 9 3 5 15 7 26 4 17 -4 18 -8 8 -20 -15 -18 4 -33 42 -33 37 0
53 -14 46 -38 -4 -12 1 -33 14 -54 l20 -35 -28 5 c-17 2 -32 13 -40 30 -11 24
-10 29 10 44 20 15 21 19 8 28 -21 14 -35 6 -34 -19 0 -15 -4 -20 -14 -16 -12
4 -12 3 -3 -9 10 -12 9 -14 -6 -11 -10 2 -22 4 -27 4 -5 1 -2 8 5 17 13 16 23
51 11 39 -4 -4 -7 -12 -7 -18 0 -5 -6 -12 -13 -15 -9 -3 -11 6 -6 35 3 21 3
35 -1 31 -4 -3 -6 -9 -5 -13 1 -4 -7 -13 -17 -20 -16 -12 -21 -11 -41 8 -20
18 -25 19 -33 7 -9 -13 -10 -12 -6 2 3 9 -1 22 -9 28 -8 7 -14 17 -14 22 0 7
5 6 13 -1 21 -17 29 0 12 25 -8 13 -16 33 -18 44 -2 12 -10 26 -18 31 -8 5
-10 9 -5 9 5 0 3 7 -4 15 -10 12 -10 15 4 15 9 0 16 -8 16 -20z m400 -58 c0
-4 -5 -13 -12 -20 -9 -9 -9 -12 -1 -12 7 0 15 5 18 10 3 6 12 10 20 10 11 0
12 -6 4 -29 -14 -40 -33 -55 -48 -38 -8 11 -5 17 14 27 14 7 25 17 25 22 0 5
-10 2 -21 -6 -12 -8 -26 -13 -33 -12 -6 2 -7 1 -3 -2 4 -2 3 -10 -4 -18 -6 -8
-14 -12 -18 -10 -4 3 -7 -4 -7 -15 0 -10 4 -19 8 -19 4 0 8 7 8 16 0 14 3 14
15 4 8 -7 15 -10 15 -6 0 3 11 1 25 -4 21 -8 25 -7 25 9 0 15 7 19 38 18 20 0
42 -4 49 -9 7 -6 25 -7 41 -3 24 5 28 3 27 -12 -1 -24 -14 -45 -24 -38 -13 7
-37 -27 -39 -54 -1 -30 -28 -60 -50 -56 -9 2 -20 4 -24 4 -5 1 -8 8 -8 16 0 8
-4 15 -10 15 -5 0 -10 7 -10 15 0 8 9 15 21 15 11 0 17 -5 14 -10 -4 -6 -11
-7 -17 -4 -7 4 -8 2 -4 -4 4 -7 18 -12 32 -12 21 0 24 5 24 34 0 28 4 35 25
40 14 4 25 13 25 21 0 18 -20 20 -21 3 0 -10 -2 -10 -6 0 -3 8 -11 5 -24 -10
-15 -18 -20 -20 -28 -9 -7 11 -13 10 -35 -4 -14 -10 -26 -23 -26 -29 0 -25
-21 -34 -51 -23 -32 12 -40 37 -11 37 13 0 14 -2 4 -9 -10 -6 -7 -10 13 -15
35 -9 44 0 19 19 -10 9 -14 15 -9 14 6 -1 13 0 18 1 13 4 27 7 40 9 8 1 7 4
-3 11 -20 13 -41 13 -37 -1 3 -14 -31 -21 -39 -8 -3 5 -10 7 -15 3 -6 -3 -13
4 -16 15 -4 17 -8 19 -19 10 -11 -9 -14 -8 -14 5 0 9 8 16 20 16 19 0 20 5 16
45 l-6 45 45 0 c25 0 45 -4 45 -8z m1764 -81 c8 -12 -16 -29 -36 -26 -26 5
-34 -15 -9 -22 12 -3 21 -8 21 -12 0 -15 -32 -51 -41 -46 -11 7 -7 -37 4 -46
7 -5 10 -55 6 -89 -4 -29 1 -60 10 -60 5 0 7 10 3 22 -4 18 -2 20 17 15 22 -5
23 -4 19 59 -3 50 -1 64 10 64 12 0 12 -3 2 -15 -11 -13 -10 -14 6 -8 17 6 17
5 5 -10 -12 -15 -11 -17 8 -17 22 0 30 33 11 45 -5 3 -10 15 -10 26 0 10 5 19
10 19 6 0 10 7 10 16 0 8 4 13 9 10 5 -4 7 2 5 11 -6 25 10 46 31 41 17 -3 17
-4 0 -18 -15 -12 -17 -12 -10 -1 5 10 4 12 -4 7 -8 -5 -9 -12 -2 -20 5 -6 8
-21 6 -31 -2 -11 -4 -22 -4 -25 -1 -3 -5 1 -10 8 -6 10 -10 10 -20 -2 -10 -12
-9 -15 6 -15 79 -2 82 -3 76 -17 -3 -9 2 -14 17 -14 11 0 19 -4 16 -9 -7 -10
17 -21 46 -21 16 0 18 -3 9 -14 -14 -17 -39 -15 -51 4 -6 9 -10 7 -15 -9 -6
-19 -9 -20 -23 -9 -15 11 -15 11 -4 -3 11 -14 7 -16 -28 -15 -32 1 -40 5 -40
20 0 19 0 19 -22 0 -12 -10 -18 -13 -14 -6 4 6 3 12 -2 12 -6 0 -9 -11 -8 -25
1 -26 12 -33 18 -13 6 16 39 2 34 -14 -1 -7 -1 -10 1 -7 8 12 54 -4 68 -24 15
-21 11 -42 -6 -31 -5 3 -8 2 -7 -3 2 -5 -2 -15 -9 -23 -62 -76 -78 -90 -90
-86 -8 3 -12 2 -9 -3 5 -8 -43 -33 -73 -38 -8 -1 -18 -8 -22 -15 -7 -10 -11
-10 -19 2 -14 22 -12 31 8 29 32 -3 36 1 17 15 -19 13 -18 15 15 30 25 11 28
14 10 10 -17 -3 -33 2 -47 15 -13 12 -25 17 -28 11 -3 -6 -1 -10 6 -10 10 0
10 -3 1 -12 -13 -13 -62 -21 -62 -10 0 16 -89 -1 -106 -19 -17 -19 -18 -19
-41 3 -13 12 -23 27 -23 35 0 20 -17 15 -23 -7 -3 -13 0 -20 9 -20 8 0 24 -9
36 -20 12 -11 25 -20 30 -20 4 0 12 9 18 20 8 15 21 20 56 20 25 0 43 -4 40
-9 -3 -5 -23 -7 -43 -4 -30 3 -41 0 -51 -16 -10 -18 -10 -21 4 -21 8 0 12 -4
9 -10 -3 -5 1 -10 9 -10 18 0 22 -25 6 -35 -15 -9 -12 -25 5 -25 9 0 20 17 27
45 9 32 17 45 30 45 10 0 19 8 19 18 1 16 2 16 6 0 2 -10 11 -18 19 -18 8 0
12 -4 9 -10 -3 -5 -8 -20 -10 -31 -6 -31 -12 -34 -39 -21 -21 9 -24 9 -19 -3
7 -20 -58 -49 -69 -32 -5 8 -12 6 -23 -8 -13 -15 -15 -16 -11 -3 2 9 -1 19 -9
21 -18 8 -27 -4 -14 -19 7 -9 4 -14 -13 -20 -45 -15 -73 -10 -76 14 -2 12 -8
20 -13 17 -5 -4 -9 -1 -9 5 0 6 10 8 28 4 15 -4 23 -3 19 2 -5 5 -13 10 -18
10 -5 1 -13 2 -18 3 -5 0 -9 17 -9 36 0 19 4 35 9 35 5 0 9 9 9 21 0 12 8 23
20 26 11 3 20 14 20 24 0 11 6 19 14 19 8 0 18 9 21 21 6 17 12 19 38 13 43
-9 51 -14 39 -26 -19 -19 -1 -38 35 -38 24 0 41 8 58 26 26 28 25 47 -1 37
-12 -5 -15 2 -12 33 3 34 6 39 28 39 19 0 26 -6 28 -24 2 -15 0 -21 -7 -16 -6
3 -9 11 -6 16 4 5 2 9 -3 9 -6 0 -9 -11 -8 -24 1 -17 7 -23 21 -22 17 1 20 6
17 30 -3 19 -1 27 6 22 6 -3 13 -2 17 4 4 6 11 8 16 5 5 -4 5 4 -1 19 -5 14
-8 31 -6 38 1 7 1 9 -2 5 -2 -4 -11 -2 -20 5 -15 11 -15 11 -4 -4 8 -10 9 -18
3 -22 -15 -10 -24 55 -12 87 6 15 17 27 26 27 11 0 13 7 9 30 -4 18 -2 30 4
30 5 0 13 11 16 25 5 20 13 25 36 25 16 0 31 -4 34 -9z m-1479 -101 c-3 -5 3
-10 14 -10 12 0 21 5 21 10 0 6 8 10 18 10 14 -1 13 -4 -7 -20 l-23 -20 26 0
c14 0 26 -4 26 -9 0 -4 11 -6 25 -3 28 5 32 -5 11 -34 -10 -12 -11 -23 -5 -31
7 -7 6 -14 -1 -18 -8 -5 -8 -11 1 -21 6 -8 9 -17 5 -21 -3 -3 -6 -1 -6 5 0 7
-11 12 -25 12 -15 0 -25 6 -25 14 0 7 -12 16 -27 19 -21 4 -32 0 -44 -15 -15
-20 -16 -20 -24 -2 -5 11 -7 22 -7 27 4 14 -16 7 -22 -9 -4 -9 -5 -17 -4 -18
30 -11 43 -27 40 -47 -2 -13 -9 -30 -14 -36 -7 -9 -7 -13 1 -13 7 0 9 -5 6
-10 -4 -6 -11 -7 -17 -4 -6 4 -8 3 -5 -3 7 -11 -19 -53 -34 -53 -5 0 -9 7 -9
15 0 8 7 15 15 15 8 0 15 7 15 16 0 8 -4 12 -10 9 -6 -4 -10 7 -10 24 0 17 -4
31 -10 31 -5 0 -10 7 -10 16 0 8 -13 20 -30 25 -39 14 -42 54 -5 63 14 4 25
11 25 17 0 6 -7 9 -15 5 -11 -4 -15 1 -15 19 0 14 3 25 8 25 4 0 18 3 31 7 21
5 22 4 12 -16 -9 -16 -9 -21 1 -21 9 0 9 -3 0 -12 -16 -16 -15 -38 1 -34 36
12 98 16 92 6 -3 -5 -2 -10 3 -10 16 0 20 35 6 47 -9 9 -15 9 -23 -1 -7 -8
-21 -16 -32 -19 -15 -4 -19 -1 -17 11 2 10 15 18 31 20 23 3 26 7 21 28 -5 18
-2 24 11 24 9 0 13 -4 10 -10z m121 -182 c5 4 2 -1 -5 -10 -11 -15 -11 -18 2
-18 11 0 14 -6 11 -15 -4 -8 -1 -22 5 -29 9 -11 9 -15 -1 -20 -7 -3 0 -4 16
-3 24 2 29 -2 31 -21 1 -12 -4 -27 -11 -33 -10 -8 -16 -5 -25 15 -7 14 -16 23
-20 20 -5 -3 -9 -1 -9 4 0 5 -15 9 -32 7 -26 -2 -37 3 -49 22 -9 14 -20 24
-25 22 -4 -1 -13 5 -18 14 -8 12 -3 23 22 46 l32 31 34 -19 c19 -11 38 -17 42
-13z m834 -41 c0 -13 -34 -69 -44 -73 -7 -3 -10 -18 -8 -39 2 -20 -1 -42 -7
-49 -8 -9 -8 -16 -2 -20 5 -4 14 1 19 10 6 11 16 15 28 10 16 -6 15 -9 -9 -32
-30 -27 -28 -44 5 -44 18 0 19 -2 7 -16 -8 -9 -15 -12 -17 -6 -2 6 -9 9 -16 6
-9 -3 -13 4 -12 23 1 15 -6 33 -14 40 -12 9 -13 14 -2 24 6 7 11 24 11 39 -1
20 -2 21 -6 5 -3 -11 -12 -28 -21 -37 -8 -10 -12 -18 -8 -18 3 0 -4 -17 -17
-37 -24 -38 -31 -73 -15 -73 4 0 8 10 8 23 0 25 26 67 42 67 5 0 8 -6 5 -14
-3 -8 -3 -17 1 -21 4 -4 7 -19 8 -33 0 -25 3 -27 35 -24 18 2 35 5 36 6 2 2
11 55 12 74 1 17 31 15 31 -2 0 -8 4 -17 9 -20 5 -4 7 3 4 14 -3 12 0 20 6 20
7 0 9 -4 6 -10 -3 -5 -2 -18 3 -27 5 -10 6 -27 1 -38 -4 -11 -8 -14 -8 -6 -1
12 -4 12 -18 -1 -21 -18 -123 -32 -123 -18 0 6 -5 10 -11 10 -6 0 -8 -8 -5
-17 6 -17 5 -17 -8 0 -12 15 -15 15 -26 2 -16 -19 -34 -19 -26 0 3 8 3 15 0
15 -2 0 -9 -10 -14 -22 l-9 -23 0 23 c-1 12 3 22 9 22 5 0 12 23 16 51 4 28
12 56 19 63 9 8 10 18 4 29 -12 21 -1 67 17 67 8 0 11 6 7 16 -8 22 36 63 70
63 15 1 27 -1 27 -2z"/>
<path d="M2705 5013 c0 -30 4 -43 14 -43 9 0 5 -9 -11 -25 -16 -16 -32 -23
-42 -19 -9 3 -16 1 -16 -5 0 -6 -11 -11 -24 -11 -14 0 -28 -4 -31 -10 -3 -6 1
-7 10 -4 20 8 15 -33 -6 -47 -10 -6 -10 -9 -2 -9 7 0 12 -11 11 -25 -2 -23
-28 -37 -28 -15 0 6 5 10 10 10 6 0 10 4 10 9 0 13 -25 8 -45 -9 -15 -12 -15
-15 7 -26 12 -7 27 -10 32 -7 5 4 6 1 2 -6 -5 -7 -14 -10 -21 -7 -8 3 -19 -3
-27 -11 -11 -15 -11 -16 7 -9 34 14 129 20 121 8 -4 -6 -22 -9 -41 -8 -19 2
-35 0 -35 -6 0 -5 -5 -6 -12 -2 -6 4 -8 3 -5 -3 9 -14 57 -13 57 1 0 6 4 5 9
-3 6 -9 11 -10 15 -3 4 6 14 8 22 5 13 -5 15 -2 8 18 -4 13 -8 32 -8 42 0 12
-8 17 -29 17 -15 0 -26 -4 -23 -9 3 -5 -2 -15 -11 -22 -15 -12 -16 -12 -10 4
4 10 7 23 7 28 0 5 7 9 15 9 8 0 15 5 15 11 0 5 -4 7 -10 4 -5 -3 -10 -1 -10
5 0 7 7 9 16 6 9 -3 18 -6 20 -6 3 0 2 -4 -1 -10 -3 -5 -1 -10 4 -10 6 0 11 5
11 11 0 7 9 9 23 5 34 -8 67 4 67 25 0 11 6 19 14 19 9 0 12 7 9 20 -6 22 -23
27 -23 8 0 -7 -10 -24 -21 -38 -11 -14 -17 -19 -13 -11 5 9 3 12 -5 7 -6 -4
-9 -12 -6 -17 4 -5 1 -9 -5 -9 -6 0 -9 12 -8 26 2 22 -1 27 -19 29 -17 1 -20
-1 -12 -11 6 -7 8 -18 4 -23 -5 -9 -18 -5 -54 17 -11 6 36 37 53 34 10 -2 23
3 28 12 5 9 14 16 19 16 6 0 7 -6 2 -12 -14 -24 -11 -38 8 -38 17 0 19 5 13
35 -4 24 -3 35 6 35 7 0 10 -7 6 -15 -3 -8 -2 -15 3 -15 12 0 8 87 -5 100 -8
8 -14 7 -24 -5 -9 -11 -9 -15 -1 -15 7 0 9 -5 5 -11 -4 -8 -9 -7 -15 2 -12 19
-11 42 1 34 5 -3 7 0 4 8 -11 30 -29 13 -29 -30z"/>
<path d="M3803 4400 c1 -14 7 -31 11 -39 7 -11 5 -13 -7 -8 -11 4 -17 1 -17
-8 0 -8 1 -17 3 -18 6 -9 -27 -36 -37 -30 -6 3 -8 3 -4 -2 4 -4 3 -16 -3 -26
-8 -16 -6 -19 11 -19 12 0 18 -5 15 -10 -4 -6 -10 -8 -15 -5 -4 3 -6 -4 -3
-15 3 -11 -4 -35 -15 -54 -11 -19 -16 -36 -11 -38 14 -5 18 -40 7 -55 -17 -21
23 -33 54 -17 17 9 28 10 28 4 0 -6 10 -8 25 -4 19 5 25 2 25 -11 0 -9 -5 -13
-11 -10 -6 4 -5 -2 3 -14 8 -14 14 -17 17 -9 2 7 10 17 17 21 8 4 14 15 14 22
0 8 9 15 21 15 11 0 18 -4 14 -9 -3 -5 -1 -12 5 -16 5 -3 10 3 10 14 0 12 4
21 10 21 5 0 7 -6 4 -14 -6 -15 29 -56 47 -56 7 0 0 9 -15 21 -27 21 -26 42 1
37 9 -2 18 3 21 11 3 10 -2 11 -19 6 -18 -5 -20 -4 -9 4 20 13 3 30 -33 33
-14 1 -29 8 -32 15 -3 10 0 11 15 3 12 -7 21 -7 25 0 3 5 5 10 3 11 -41 9 -58
6 -56 -9 2 -9 -3 -16 -9 -14 -7 1 -13 -5 -13 -13 0 -9 6 -12 17 -8 11 4 14 3
9 -5 -10 -16 6 -15 24 1 12 10 12 9 0 -6 -20 -27 -54 -18 -58 16 -2 15 1 27 7
27 6 0 11 10 11 21 0 18 -2 19 -15 9 -18 -15 -20 1 -2 19 10 11 9 13 -1 7 -6
-4 -19 0 -28 9 -9 9 -23 14 -30 11 -8 -3 -14 1 -14 10 0 8 -5 12 -11 9 -14 -9
0 68 15 77 6 5 1 8 -12 8 -13 0 -20 4 -17 10 4 6 10 8 15 5 15 -9 17 20 4 55
-10 27 -13 29 -11 10z"/>
<path d="M4094 4327 c-11 -13 -24 -32 -28 -42 -5 -15 -9 -16 -15 -6 -12 18
-13 18 -49 -8 -26 -18 -31 -26 -21 -37 9 -11 15 -11 25 -3 17 14 19 -2 2 -19
-9 -9 -9 -12 1 -12 7 0 9 -5 6 -10 -3 -6 1 -13 9 -16 9 -3 13 -10 10 -15 -3
-5 9 -6 26 -3 17 4 30 3 29 -2 -4 -21 2 -26 17 -13 17 14 54 23 54 13 0 -3
-17 -13 -37 -22 -49 -22 -56 -56 -9 -46 l31 6 -27 -29 c-33 -34 -35 -47 -9
-38 11 3 23 1 26 -6 6 -8 10 -7 16 2 5 8 9 9 9 3 0 -6 -6 -17 -14 -23 -10 -9
-15 -8 -19 4 -4 8 -12 13 -19 10 -16 -6 -29 3 -49 32 -13 19 -18 20 -31 10
-13 -11 -13 -14 5 -31 17 -16 19 -17 14 -3 -3 9 -2 17 3 17 14 0 13 -23 -1
-37 -6 -6 -17 -9 -24 -7 -6 3 -12 -2 -12 -10 0 -8 7 -18 14 -20 8 -3 11 -11 7
-17 -4 -8 -9 -7 -16 2 -8 11 -9 11 -6 1 2 -8 7 -13 11 -13 4 1 16 1 27 1 13 0
20 7 20 20 0 16 7 20 36 20 21 0 33 -4 29 -10 -4 -6 -11 -7 -17 -4 -6 4 -8 2
-4 -4 3 -6 2 -13 -4 -17 -5 -3 -10 1 -10 9 0 23 -15 19 -17 -4 -1 -11 2 -18 7
-15 5 3 11 1 15 -5 6 -9 -10 -14 -42 -13 -6 0 -14 -8 -16 -18 -6 -23 1 -23 27
-4 26 19 42 19 26 0 -9 -10 -9 -15 -1 -15 6 0 11 5 11 11 0 5 6 7 13 3 6 -4 9
-4 5 1 -4 4 -2 15 5 23 9 13 9 14 0 8 -7 -4 -13 -2 -13 3 0 14 27 14 35 1 3
-5 13 -10 21 -10 11 0 12 4 4 19 -15 29 -13 88 4 94 8 3 17 19 21 36 4 17 13
31 20 31 10 0 12 7 5 30 -6 22 -5 34 6 45 18 18 44 20 44 4 0 -8 6 -7 18 2 15
13 16 12 4 -3 -9 -11 -10 -18 -2 -23 6 -3 8 -10 6 -14 -3 -3 4 -7 15 -7 10 0
19 4 19 8 0 4 -6 8 -14 8 -9 0 -12 7 -9 20 3 12 -1 22 -11 26 -9 3 -16 10 -16
16 0 5 4 7 9 3 5 -3 12 -2 15 3 3 5 -12 8 -33 8 -26 0 -37 -4 -34 -12 2 -7 0
-15 -6 -19 -6 -3 -11 -1 -11 4 0 6 -9 11 -20 11 -24 0 -27 -25 -4 -38 13 -7
14 -11 4 -17 -7 -4 -16 -2 -20 5 -4 6 -10 11 -14 11 -3 0 -13 2 -22 6 -9 3
-26 1 -36 -6 -16 -10 -19 -10 -15 1 2 7 0 21 -5 31 -7 14 -13 15 -30 6 -11 -6
-18 -7 -15 -2 3 5 1 15 -4 23 -9 13 -10 13 -8 0 1 -8 1 -22 0 -30 -1 -13 -3
-13 -10 -1 -5 8 -7 20 -4 28 3 7 0 20 -7 28 -21 25 20 19 41 -7 11 -11 22 -18
26 -14 4 4 2 11 -5 15 -12 7 -7 41 7 41 4 0 16 7 27 16 16 13 16 15 2 10 -21
-6 -23 5 -6 22 7 7 10 12 7 12 -3 0 -14 -10 -25 -23z"/>
<path d="M3196 2195 c-3 -8 0 -15 6 -15 17 0 -40 -57 -63 -63 -10 -3 -19 -1
-19 4 0 5 -5 9 -12 9 -6 0 -9 -3 -5 -6 3 -3 -3 -21 -14 -40 -26 -47 -24 -60
11 -72 21 -8 28 -16 24 -26 -3 -9 -11 -14 -16 -13 -6 1 -13 -4 -15 -10 -6 -15
13 -17 22 -3 4 6 11 7 17 4 7 -4 8 -2 4 4 -4 7 -2 12 3 12 6 0 11 -4 11 -10 0
-5 7 -10 16 -10 8 0 12 -4 9 -10 -3 -5 -3 -10 2 -10 41 1 41 119 1 120 -5 0
-8 -5 -8 -11 0 -5 4 -8 9 -4 15 9 22 -12 8 -24 -11 -8 -17 -3 -30 25 -9 19
-17 39 -17 44 0 16 30 11 36 -5 9 -22 24 -18 24 5 0 11 7 20 15 20 8 0 15 5
15 11 0 5 -4 7 -10 4 -5 -3 -10 1 -10 9 0 9 7 16 15 16 8 0 15 5 15 11 0 5 -4
7 -10 4 -5 -3 -10 3 -10 14 0 25 -16 36 -24 16z"/>
</g>
</svg>
