<svg version="1.0" xmlns="http://www.w3.org/2000/svg"
 width="400.000000pt" height="400.000000pt" viewBox="0 0 400.000000 400.000000"
 preserveAspectRatio="xMidYMid meet">
<metadata>
Created by potrace 1.16, written by Peter Selinger 2001-2019
</metadata>
<g transform="translate(0.000000,400.000000) scale(0.100000,-0.100000)"
fill="#000000" stroke="none">
<path d="M2475 3600 c-550 -126 -1033 -237 -1072 -246 l-73 -16 0 -1115 c0
-1004 -2 -1115 -16 -1109 -43 16 -157 27 -229 21 -266 -23 -504 -174 -608
-385 -29 -60 -32 -73 -32 -165 0 -118 19 -167 91 -239 93 -92 225 -133 397
-123 282 15 552 191 638 418 19 49 20 84 19 1013 l0 963 812 233 c447 128 819
235 826 238 9 3 12 -155 12 -769 l0 -774 -105 3 c-167 5 -299 -40 -431 -146
-66 -54 -138 -153 -155 -215 -20 -69 -15 -168 10 -220 97 -201 438 -242 697
-86 82 50 169 142 207 218 l32 66 3 1332 c2 1070 0 1333 -10 1332 -7 0 -463
-103 -1013 -229z"/>
</g>
</svg>
